<svg width="1439" height="589" viewBox="0 0 1439 589" fill="none" xmlns="http://www.w3.org/2000/svg">
<g clip-path="url(#clip0_617_760)">
<rect width="1439" height="589" fill="white"/>
<rect width="1439" height="589" fill="#C4C4C4"/>
<rect x="-1" width="1440" height="589" fill="url(#paint0_linear_617_760)"/>
<path d="M153.045 181.455H165.182L178 212.727H178.545L191.364 181.455H203.5V228H193.955V197.705H193.568L181.523 227.773H175.023L162.977 197.591H162.591V228H153.045V181.455ZM227.335 228.682C223.744 228.682 220.653 227.955 218.062 226.5C215.487 225.03 213.502 222.955 212.108 220.273C210.714 217.576 210.017 214.386 210.017 210.705C210.017 207.114 210.714 203.962 212.108 201.25C213.502 198.538 215.464 196.424 217.994 194.909C220.54 193.394 223.525 192.636 226.949 192.636C229.252 192.636 231.396 193.008 233.381 193.75C235.381 194.477 237.123 195.576 238.608 197.045C240.108 198.515 241.275 200.364 242.108 202.591C242.941 204.803 243.358 207.394 243.358 210.364V213.023H213.881V207.023H234.244C234.244 205.629 233.941 204.394 233.335 203.318C232.729 202.242 231.888 201.402 230.812 200.795C229.752 200.174 228.517 199.864 227.108 199.864C225.638 199.864 224.335 200.205 223.199 200.886C222.078 201.553 221.199 202.455 220.562 203.591C219.926 204.712 219.6 205.962 219.585 207.341V213.045C219.585 214.773 219.903 216.265 220.54 217.523C221.191 218.78 222.108 219.75 223.29 220.432C224.472 221.114 225.873 221.455 227.494 221.455C228.57 221.455 229.555 221.303 230.449 221C231.343 220.697 232.108 220.242 232.744 219.636C233.381 219.03 233.866 218.288 234.199 217.409L243.153 218C242.699 220.152 241.767 222.03 240.358 223.636C238.964 225.227 237.161 226.47 234.949 227.364C232.752 228.242 230.214 228.682 227.335 228.682ZM272.062 213.136V193.091H281.744V228H272.449V221.659H272.085C271.297 223.705 269.987 225.348 268.153 226.591C266.335 227.833 264.116 228.455 261.494 228.455C259.161 228.455 257.108 227.924 255.335 226.864C253.563 225.803 252.176 224.295 251.176 222.341C250.191 220.386 249.691 218.045 249.676 215.318V193.091H259.358V213.591C259.373 215.652 259.926 217.28 261.017 218.477C262.108 219.674 263.57 220.273 265.403 220.273C266.57 220.273 267.661 220.008 268.676 219.477C269.691 218.932 270.509 218.129 271.131 217.068C271.767 216.008 272.078 214.697 272.062 213.136ZM153.045 305V258.455H171.409C174.939 258.455 177.947 259.129 180.432 260.477C182.917 261.811 184.811 263.667 186.114 266.045C187.432 268.409 188.091 271.136 188.091 274.227C188.091 277.318 187.424 280.045 186.091 282.409C184.758 284.773 182.826 286.614 180.295 287.932C177.78 289.25 174.735 289.909 171.159 289.909H159.455V282.023H169.568C171.462 282.023 173.023 281.697 174.25 281.045C175.492 280.379 176.417 279.462 177.023 278.295C177.644 277.114 177.955 275.758 177.955 274.227C177.955 272.682 177.644 271.333 177.023 270.182C176.417 269.015 175.492 268.114 174.25 267.477C173.008 266.826 171.432 266.5 169.523 266.5H162.886V305H153.045ZM209.511 305.682C205.981 305.682 202.928 304.932 200.352 303.432C197.792 301.917 195.814 299.811 194.42 297.114C193.027 294.402 192.33 291.258 192.33 287.682C192.33 284.076 193.027 280.924 194.42 278.227C195.814 275.515 197.792 273.409 200.352 271.909C202.928 270.394 205.981 269.636 209.511 269.636C213.042 269.636 216.087 270.394 218.648 271.909C221.223 273.409 223.208 275.515 224.602 278.227C225.996 280.924 226.693 284.076 226.693 287.682C226.693 291.258 225.996 294.402 224.602 297.114C223.208 299.811 221.223 301.917 218.648 303.432C216.087 304.932 213.042 305.682 209.511 305.682ZM209.557 298.182C211.163 298.182 212.504 297.727 213.58 296.818C214.655 295.894 215.466 294.636 216.011 293.045C216.572 291.455 216.852 289.644 216.852 287.614C216.852 285.583 216.572 283.773 216.011 282.182C215.466 280.591 214.655 279.333 213.58 278.409C212.504 277.485 211.163 277.023 209.557 277.023C207.936 277.023 206.572 277.485 205.466 278.409C204.375 279.333 203.549 280.591 202.989 282.182C202.443 283.773 202.17 285.583 202.17 287.614C202.17 289.644 202.443 291.455 202.989 293.045C203.549 294.636 204.375 295.894 205.466 296.818C206.572 297.727 207.936 298.182 209.557 298.182ZM232.989 305V270.091H242.375V276.182H242.739C243.375 274.015 244.443 272.379 245.943 271.273C247.443 270.152 249.17 269.591 251.125 269.591C251.61 269.591 252.133 269.621 252.693 269.682C253.254 269.742 253.746 269.826 254.17 269.932V278.523C253.716 278.386 253.087 278.265 252.284 278.159C251.481 278.053 250.746 278 250.08 278C248.655 278 247.383 278.311 246.261 278.932C245.155 279.538 244.277 280.386 243.625 281.477C242.989 282.568 242.67 283.826 242.67 285.25V305H232.989ZM279.494 270.091V277.364H258.472V270.091H279.494ZM263.244 261.727H272.926V294.273C272.926 295.167 273.063 295.864 273.335 296.364C273.608 296.848 273.987 297.189 274.472 297.386C274.972 297.583 275.547 297.682 276.199 297.682C276.653 297.682 277.108 297.644 277.562 297.568C278.017 297.477 278.366 297.409 278.608 297.364L280.131 304.568C279.646 304.72 278.964 304.894 278.085 305.091C277.206 305.303 276.138 305.432 274.881 305.477C272.547 305.568 270.502 305.258 268.744 304.545C267.002 303.833 265.646 302.727 264.676 301.227C263.706 299.727 263.229 297.833 263.244 295.545V261.727ZM285.801 305V270.091H295.483V305H285.801ZM290.665 265.591C289.225 265.591 287.991 265.114 286.96 264.159C285.945 263.189 285.438 262.03 285.438 260.682C285.438 259.348 285.945 258.205 286.96 257.25C287.991 256.28 289.225 255.795 290.665 255.795C292.104 255.795 293.331 256.28 294.347 257.25C295.377 258.205 295.892 259.348 295.892 260.682C295.892 262.03 295.377 263.189 294.347 264.159C293.331 265.114 292.104 265.591 290.665 265.591ZM322.011 270.091V277.364H300.466V270.091H322.011ZM305.398 305V267.568C305.398 265.038 305.89 262.939 306.875 261.273C307.875 259.606 309.239 258.356 310.966 257.523C312.693 256.689 314.655 256.273 316.852 256.273C318.337 256.273 319.693 256.386 320.92 256.614C322.163 256.841 323.087 257.045 323.693 257.227L321.966 264.5C321.587 264.379 321.117 264.265 320.557 264.159C320.011 264.053 319.451 264 318.875 264C317.451 264 316.458 264.333 315.898 265C315.337 265.652 315.057 266.568 315.057 267.75V305H305.398ZM342.449 305.682C338.919 305.682 335.866 304.932 333.29 303.432C330.729 301.917 328.752 299.811 327.358 297.114C325.964 294.402 325.267 291.258 325.267 287.682C325.267 284.076 325.964 280.924 327.358 278.227C328.752 275.515 330.729 273.409 333.29 271.909C335.866 270.394 338.919 269.636 342.449 269.636C345.979 269.636 349.025 270.394 351.585 271.909C354.161 273.409 356.146 275.515 357.54 278.227C358.934 280.924 359.631 284.076 359.631 287.682C359.631 291.258 358.934 294.402 357.54 297.114C356.146 299.811 354.161 301.917 351.585 303.432C349.025 304.932 345.979 305.682 342.449 305.682ZM342.494 298.182C344.1 298.182 345.441 297.727 346.517 296.818C347.593 295.894 348.403 294.636 348.949 293.045C349.509 291.455 349.79 289.644 349.79 287.614C349.79 285.583 349.509 283.773 348.949 282.182C348.403 280.591 347.593 279.333 346.517 278.409C345.441 277.485 344.1 277.023 342.494 277.023C340.873 277.023 339.509 277.485 338.403 278.409C337.313 279.333 336.487 280.591 335.926 282.182C335.381 283.773 335.108 285.583 335.108 287.614C335.108 289.644 335.381 291.455 335.926 293.045C336.487 294.636 337.313 295.894 338.403 296.818C339.509 297.727 340.873 298.182 342.494 298.182ZM338.972 265.591L343.79 255.25H352.744L345.812 265.591H338.972ZM375.608 258.455V305H365.926V258.455H375.608ZM383.364 305V270.091H393.045V305H383.364ZM388.227 265.591C386.788 265.591 385.553 265.114 384.523 264.159C383.508 263.189 383 262.03 383 260.682C383 259.348 383.508 258.205 384.523 257.25C385.553 256.28 386.788 255.795 388.227 255.795C389.667 255.795 390.894 256.28 391.909 257.25C392.939 258.205 393.455 259.348 393.455 260.682C393.455 262.03 392.939 263.189 391.909 264.159C390.894 265.114 389.667 265.591 388.227 265.591ZM416.574 305.682C413.044 305.682 409.991 304.932 407.415 303.432C404.854 301.917 402.877 299.811 401.483 297.114C400.089 294.402 399.392 291.258 399.392 287.682C399.392 284.076 400.089 280.924 401.483 278.227C402.877 275.515 404.854 273.409 407.415 271.909C409.991 270.394 413.044 269.636 416.574 269.636C420.104 269.636 423.15 270.394 425.71 271.909C428.286 273.409 430.271 275.515 431.665 278.227C433.059 280.924 433.756 284.076 433.756 287.682C433.756 291.258 433.059 294.402 431.665 297.114C430.271 299.811 428.286 301.917 425.71 303.432C423.15 304.932 420.104 305.682 416.574 305.682ZM416.619 298.182C418.225 298.182 419.566 297.727 420.642 296.818C421.718 295.894 422.528 294.636 423.074 293.045C423.634 291.455 423.915 289.644 423.915 287.614C423.915 285.583 423.634 283.773 423.074 282.182C422.528 280.591 421.718 279.333 420.642 278.409C419.566 277.485 418.225 277.023 416.619 277.023C414.998 277.023 413.634 277.485 412.528 278.409C411.438 279.333 410.612 280.591 410.051 282.182C409.506 283.773 409.233 285.583 409.233 287.614C409.233 289.644 409.506 291.455 410.051 293.045C410.612 294.636 411.438 295.894 412.528 296.818C413.634 297.727 414.998 298.182 416.619 298.182ZM460.523 305.591C459.023 305.591 457.735 305.061 456.659 304C455.598 302.924 455.068 301.636 455.068 300.136C455.068 298.652 455.598 297.379 456.659 296.318C457.735 295.258 459.023 294.727 460.523 294.727C461.977 294.727 463.25 295.258 464.341 296.318C465.432 297.379 465.977 298.652 465.977 300.136C465.977 301.136 465.72 302.053 465.205 302.886C464.705 303.705 464.045 304.364 463.227 304.864C462.409 305.348 461.508 305.591 460.523 305.591ZM460.523 281.136C459.023 281.136 457.735 280.606 456.659 279.545C455.598 278.485 455.068 277.197 455.068 275.682C455.068 274.197 455.598 272.932 456.659 271.886C457.735 270.826 459.023 270.295 460.523 270.295C461.977 270.295 463.25 270.826 464.341 271.886C465.432 272.932 465.977 274.197 465.977 275.682C465.977 276.697 465.72 277.621 465.205 278.455C464.705 279.273 464.045 279.924 463.227 280.409C462.409 280.894 461.508 281.136 460.523 281.136ZM490.244 286.341C490.244 291.992 489.487 297.189 487.972 301.932C486.472 306.674 484.169 311.068 481.062 315.114H471.812C472.994 313.614 474.093 311.78 475.108 309.614C476.123 307.447 477.009 305.083 477.767 302.523C478.525 299.947 479.116 297.28 479.54 294.523C479.964 291.765 480.176 289.038 480.176 286.341C480.176 282.75 479.805 279.129 479.062 275.477C478.335 271.811 477.335 268.417 476.062 265.295C474.805 262.159 473.388 259.591 471.812 257.591H481.062C484.169 261.636 486.472 266.03 487.972 270.773C489.487 275.515 490.244 280.705 490.244 286.341Z" fill="white"/>
<path d="M151 386.659C149.854 386.659 148.808 386.38 147.861 385.821C146.914 385.253 146.156 384.495 145.588 383.548C145.029 382.601 144.75 381.555 144.75 380.409C144.75 379.254 145.029 378.207 145.588 377.27C146.156 376.323 146.914 375.57 147.861 375.011C148.808 374.443 149.854 374.159 151 374.159C152.155 374.159 153.202 374.443 154.139 375.011C155.086 375.57 155.839 376.323 156.398 377.27C156.966 378.207 157.25 379.254 157.25 380.409C157.25 381.555 156.966 382.601 156.398 383.548C155.839 384.495 155.086 385.253 154.139 385.821C153.202 386.38 152.155 386.659 151 386.659ZM184.523 392V362.909H194.352C196.634 362.909 198.5 363.321 199.949 364.145C201.407 364.959 202.487 366.062 203.188 367.455C203.888 368.847 204.239 370.4 204.239 372.114C204.239 373.828 203.888 375.385 203.188 376.787C202.496 378.188 201.426 379.306 199.977 380.139C198.528 380.963 196.672 381.375 194.409 381.375H187.364V378.25H194.295C195.858 378.25 197.113 377.98 198.06 377.44C199.007 376.901 199.693 376.171 200.119 375.253C200.555 374.325 200.773 373.278 200.773 372.114C200.773 370.949 200.555 369.907 200.119 368.989C199.693 368.07 199.002 367.35 198.045 366.83C197.089 366.299 195.82 366.034 194.239 366.034H188.045V392H184.523ZM218.088 392.455C216.118 392.455 214.39 391.986 212.903 391.048C211.426 390.111 210.271 388.799 209.438 387.114C208.614 385.428 208.202 383.458 208.202 381.205C208.202 378.932 208.614 376.948 209.438 375.253C210.271 373.558 211.426 372.241 212.903 371.304C214.39 370.366 216.118 369.898 218.088 369.898C220.058 369.898 221.781 370.366 223.259 371.304C224.745 372.241 225.901 373.558 226.724 375.253C227.558 376.948 227.974 378.932 227.974 381.205C227.974 383.458 227.558 385.428 226.724 387.114C225.901 388.799 224.745 390.111 223.259 391.048C221.781 391.986 220.058 392.455 218.088 392.455ZM218.088 389.443C219.584 389.443 220.815 389.06 221.781 388.293C222.747 387.526 223.462 386.517 223.926 385.267C224.39 384.017 224.622 382.663 224.622 381.205C224.622 379.746 224.39 378.387 223.926 377.128C223.462 375.868 222.747 374.85 221.781 374.074C220.815 373.297 219.584 372.909 218.088 372.909C216.592 372.909 215.361 373.297 214.395 374.074C213.429 374.85 212.714 375.868 212.25 377.128C211.786 378.387 211.554 379.746 211.554 381.205C211.554 382.663 211.786 384.017 212.25 385.267C212.714 386.517 213.429 387.526 214.395 388.293C215.361 389.06 216.592 389.443 218.088 389.443ZM233.092 392V370.182H236.33V373.477H236.558C236.955 372.398 237.675 371.522 238.717 370.849C239.758 370.177 240.933 369.841 242.239 369.841C242.486 369.841 242.793 369.846 243.163 369.855C243.532 369.865 243.811 369.879 244.001 369.898V373.307C243.887 373.278 243.627 373.236 243.219 373.179C242.822 373.113 242.4 373.08 241.955 373.08C240.895 373.08 239.948 373.302 239.114 373.747C238.29 374.183 237.637 374.789 237.154 375.565C236.681 376.332 236.444 377.208 236.444 378.193V392H233.092ZM259.679 392V362.909H263.202V388.875H276.724V392H259.679ZM295.474 383.08V370.182H298.827V392H295.474V388.307H295.247C294.736 389.415 293.94 390.357 292.861 391.134C291.781 391.901 290.418 392.284 288.77 392.284C287.406 392.284 286.194 391.986 285.134 391.389C284.073 390.783 283.24 389.874 282.634 388.662C282.027 387.44 281.724 385.902 281.724 384.045V370.182H285.077V383.818C285.077 385.409 285.522 386.678 286.412 387.625C287.312 388.572 288.457 389.045 289.849 389.045C290.683 389.045 291.53 388.832 292.392 388.406C293.263 387.98 293.992 387.327 294.58 386.446C295.176 385.565 295.474 384.443 295.474 383.08ZM311.387 392.511C310.004 392.511 308.75 392.251 307.623 391.73C306.496 391.2 305.601 390.438 304.938 389.443C304.275 388.439 303.944 387.227 303.944 385.807C303.944 384.557 304.19 383.544 304.683 382.767C305.175 381.981 305.833 381.366 306.657 380.92C307.481 380.475 308.39 380.144 309.384 379.926C310.388 379.699 311.397 379.519 312.41 379.386C313.736 379.216 314.81 379.088 315.634 379.003C316.468 378.908 317.074 378.752 317.452 378.534C317.841 378.316 318.035 377.937 318.035 377.398V377.284C318.035 375.883 317.651 374.794 316.884 374.017C316.127 373.241 314.976 372.852 313.433 372.852C311.832 372.852 310.577 373.203 309.668 373.903C308.759 374.604 308.12 375.352 307.751 376.148L304.569 375.011C305.137 373.686 305.895 372.653 306.842 371.915C307.798 371.167 308.84 370.646 309.967 370.352C311.103 370.049 312.22 369.898 313.319 369.898C314.02 369.898 314.825 369.983 315.734 370.153C316.652 370.314 317.538 370.651 318.39 371.162C319.252 371.673 319.967 372.445 320.535 373.477C321.103 374.509 321.387 375.892 321.387 377.625V392H318.035V389.045H317.864C317.637 389.519 317.258 390.026 316.728 390.565C316.198 391.105 315.492 391.564 314.612 391.943C313.731 392.322 312.656 392.511 311.387 392.511ZM311.898 389.5C313.224 389.5 314.342 389.24 315.251 388.719C316.169 388.198 316.861 387.526 317.325 386.702C317.798 385.878 318.035 385.011 318.035 384.102V381.034C317.893 381.205 317.58 381.361 317.097 381.503C316.624 381.635 316.075 381.754 315.45 381.858C314.834 381.953 314.233 382.038 313.646 382.114C313.068 382.18 312.599 382.237 312.239 382.284C311.368 382.398 310.554 382.582 309.796 382.838C309.048 383.084 308.442 383.458 307.978 383.96C307.523 384.453 307.296 385.125 307.296 385.977C307.296 387.142 307.727 388.023 308.589 388.619C309.46 389.206 310.563 389.5 311.898 389.5ZM330.858 378.875V392H327.506V370.182H330.744V373.591H331.028C331.54 372.483 332.316 371.593 333.358 370.92C334.4 370.239 335.744 369.898 337.392 369.898C338.869 369.898 340.162 370.201 341.27 370.807C342.378 371.403 343.24 372.312 343.855 373.534C344.471 374.746 344.778 376.28 344.778 378.136V392H341.426V378.364C341.426 376.65 340.981 375.314 340.091 374.358C339.201 373.392 337.979 372.909 336.426 372.909C335.356 372.909 334.4 373.141 333.557 373.605C332.723 374.069 332.065 374.746 331.582 375.636C331.099 376.527 330.858 377.606 330.858 378.875ZM357.325 392.511C355.942 392.511 354.687 392.251 353.56 391.73C352.433 391.2 351.539 390.438 350.876 389.443C350.213 388.439 349.881 387.227 349.881 385.807C349.881 384.557 350.128 383.544 350.62 382.767C351.112 381.981 351.771 381.366 352.594 380.92C353.418 380.475 354.327 380.144 355.322 379.926C356.326 379.699 357.334 379.519 358.347 379.386C359.673 379.216 360.748 379.088 361.572 379.003C362.405 378.908 363.011 378.752 363.39 378.534C363.778 378.316 363.972 377.937 363.972 377.398V377.284C363.972 375.883 363.589 374.794 362.822 374.017C362.064 373.241 360.914 372.852 359.37 372.852C357.77 372.852 356.515 373.203 355.606 373.903C354.697 374.604 354.058 375.352 353.688 376.148L350.506 375.011C351.075 373.686 351.832 372.653 352.779 371.915C353.736 371.167 354.777 370.646 355.904 370.352C357.04 370.049 358.158 369.898 359.256 369.898C359.957 369.898 360.762 369.983 361.671 370.153C362.59 370.314 363.475 370.651 364.327 371.162C365.189 371.673 365.904 372.445 366.472 373.477C367.04 374.509 367.325 375.892 367.325 377.625V392H363.972V389.045H363.802C363.575 389.519 363.196 390.026 362.665 390.565C362.135 391.105 361.43 391.564 360.549 391.943C359.668 392.322 358.594 392.511 357.325 392.511ZM357.836 389.5C359.162 389.5 360.279 389.24 361.188 388.719C362.107 388.198 362.798 387.526 363.262 386.702C363.736 385.878 363.972 385.011 363.972 384.102V381.034C363.83 381.205 363.518 381.361 363.035 381.503C362.561 381.635 362.012 381.754 361.387 381.858C360.772 381.953 360.17 382.038 359.583 382.114C359.005 382.18 358.537 382.237 358.177 382.284C357.306 382.398 356.491 382.582 355.734 382.838C354.986 383.084 354.379 383.458 353.915 383.96C353.461 384.453 353.234 385.125 353.234 385.977C353.234 387.142 353.665 388.023 354.526 388.619C355.397 389.206 356.501 389.5 357.836 389.5ZM401.057 370.182C400.886 368.742 400.195 367.625 398.983 366.83C397.771 366.034 396.284 365.636 394.523 365.636C393.235 365.636 392.108 365.845 391.142 366.261C390.186 366.678 389.438 367.251 388.898 367.98C388.367 368.709 388.102 369.538 388.102 370.466C388.102 371.242 388.287 371.91 388.656 372.469C389.035 373.018 389.518 373.477 390.105 373.847C390.692 374.206 391.308 374.505 391.952 374.741C392.596 374.969 393.188 375.153 393.727 375.295L396.682 376.091C397.439 376.29 398.282 376.564 399.21 376.915C400.148 377.265 401.043 377.743 401.895 378.349C402.757 378.946 403.467 379.713 404.026 380.651C404.584 381.588 404.864 382.739 404.864 384.102C404.864 385.674 404.452 387.095 403.628 388.364C402.813 389.633 401.62 390.641 400.048 391.389C398.486 392.137 396.587 392.511 394.352 392.511C392.269 392.511 390.465 392.175 388.94 391.503C387.425 390.83 386.232 389.893 385.361 388.69C384.499 387.488 384.011 386.091 383.898 384.5H387.534C387.629 385.598 387.998 386.508 388.642 387.227C389.295 387.937 390.119 388.468 391.114 388.818C392.117 389.159 393.197 389.33 394.352 389.33C395.697 389.33 396.904 389.112 397.974 388.676C399.045 388.231 399.892 387.616 400.517 386.83C401.142 386.034 401.455 385.106 401.455 384.045C401.455 383.08 401.185 382.294 400.645 381.688C400.105 381.081 399.395 380.589 398.514 380.21C397.634 379.831 396.682 379.5 395.659 379.216L392.08 378.193C389.807 377.54 388.008 376.607 386.682 375.395C385.356 374.183 384.693 372.597 384.693 370.636C384.693 369.008 385.134 367.587 386.014 366.375C386.904 365.153 388.098 364.206 389.594 363.534C391.099 362.852 392.78 362.511 394.636 362.511C396.511 362.511 398.178 362.848 399.636 363.52C401.095 364.183 402.25 365.092 403.102 366.247C403.964 367.402 404.419 368.714 404.466 370.182H401.057ZM419.065 392.455C417.095 392.455 415.367 391.986 413.88 391.048C412.403 390.111 411.247 388.799 410.414 387.114C409.59 385.428 409.178 383.458 409.178 381.205C409.178 378.932 409.59 376.948 410.414 375.253C411.247 373.558 412.403 372.241 413.88 371.304C415.367 370.366 417.095 369.898 419.065 369.898C421.034 369.898 422.758 370.366 424.235 371.304C425.722 372.241 426.877 373.558 427.701 375.253C428.534 376.948 428.951 378.932 428.951 381.205C428.951 383.458 428.534 385.428 427.701 387.114C426.877 388.799 425.722 390.111 424.235 391.048C422.758 391.986 421.034 392.455 419.065 392.455ZM419.065 389.443C420.561 389.443 421.792 389.06 422.758 388.293C423.724 387.526 424.439 386.517 424.903 385.267C425.367 384.017 425.599 382.663 425.599 381.205C425.599 379.746 425.367 378.387 424.903 377.128C424.439 375.868 423.724 374.85 422.758 374.074C421.792 373.297 420.561 372.909 419.065 372.909C417.568 372.909 416.337 373.297 415.371 374.074C414.406 374.85 413.691 375.868 413.227 377.128C412.763 378.387 412.531 379.746 412.531 381.205C412.531 382.663 412.763 384.017 413.227 385.267C413.691 386.517 414.406 387.526 415.371 388.293C416.337 389.06 417.568 389.443 419.065 389.443ZM447.818 383.08V370.182H451.17V392H447.818V388.307H447.591C447.08 389.415 446.284 390.357 445.205 391.134C444.125 391.901 442.761 392.284 441.114 392.284C439.75 392.284 438.538 391.986 437.477 391.389C436.417 390.783 435.583 389.874 434.977 388.662C434.371 387.44 434.068 385.902 434.068 384.045V370.182H437.42V383.818C437.42 385.409 437.866 386.678 438.756 387.625C439.655 388.572 440.801 389.045 442.193 389.045C443.027 389.045 443.874 388.832 444.736 388.406C445.607 387.98 446.336 387.327 446.923 386.446C447.52 385.565 447.818 384.443 447.818 383.08ZM456.685 392V389.443L469.072 373.534V373.307H457.083V370.182H473.39V372.852L461.344 388.648V388.875H473.788V392H456.685ZM485.371 392.511C483.989 392.511 482.734 392.251 481.607 391.73C480.48 391.2 479.585 390.438 478.923 389.443C478.26 388.439 477.928 387.227 477.928 385.807C477.928 384.557 478.174 383.544 478.667 382.767C479.159 381.981 479.817 381.366 480.641 380.92C481.465 380.475 482.374 380.144 483.369 379.926C484.372 379.699 485.381 379.519 486.394 379.386C487.72 379.216 488.795 379.088 489.619 379.003C490.452 378.908 491.058 378.752 491.437 378.534C491.825 378.316 492.019 377.937 492.019 377.398V377.284C492.019 375.883 491.636 374.794 490.869 374.017C490.111 373.241 488.96 372.852 487.417 372.852C485.817 372.852 484.562 373.203 483.653 373.903C482.744 374.604 482.104 375.352 481.735 376.148L478.553 375.011C479.121 373.686 479.879 372.653 480.826 371.915C481.782 371.167 482.824 370.646 483.951 370.352C485.087 370.049 486.205 369.898 487.303 369.898C488.004 369.898 488.809 369.983 489.718 370.153C490.637 370.314 491.522 370.651 492.374 371.162C493.236 371.673 493.951 372.445 494.519 373.477C495.087 374.509 495.371 375.892 495.371 377.625V392H492.019V389.045H491.849C491.621 389.519 491.243 390.026 490.712 390.565C490.182 391.105 489.477 391.564 488.596 391.943C487.715 392.322 486.64 392.511 485.371 392.511ZM485.883 389.5C487.209 389.5 488.326 389.24 489.235 388.719C490.154 388.198 490.845 387.526 491.309 386.702C491.782 385.878 492.019 385.011 492.019 384.102V381.034C491.877 381.205 491.565 381.361 491.082 381.503C490.608 381.635 490.059 381.754 489.434 381.858C488.818 381.953 488.217 382.038 487.63 382.114C487.052 382.18 486.584 382.237 486.224 382.284C485.353 382.398 484.538 382.582 483.781 382.838C483.032 383.084 482.426 383.458 481.962 383.96C481.508 384.453 481.281 385.125 481.281 385.977C481.281 387.142 481.711 388.023 482.573 388.619C483.444 389.206 484.548 389.5 485.883 389.5Z" fill="white"/>
<path d="M1003.51 115.9H958.38V172.87H1003.51V115.9Z" fill="#EBEBEB"/>
<path d="M984.36 171.59H978.1V173.11H984.36V171.59Z" fill="#E0E0E0"/>
<path d="M982.39 135.51L974.079 136.73L970.979 144.54L976.189 151.13L984.499 149.91L987.6 142.1L982.39 135.51Z" fill="#E0E0E0"/>
<path d="M986.279 140.56L977.969 141.78L974.859 149.58L980.069 156.18L988.389 154.96L991.489 147.15L986.279 140.56Z" fill="#FAFAFA"/>
<path d="M985.25 115.13H978.99V116.43H985.25V115.13Z" fill="#E0E0E0"/>
<path d="M1060.62 138.97H1029.96V204.59H1060.62V138.97Z" fill="#F5F5F5"/>
<path d="M1099.56 209.18H1061.89V272.58H1099.56V209.18Z" fill="#F5F5F5"/>
<path d="M1104.14 137.84H1139.91V79.63H1141.18V137.84H1174.29V78.34H1104.14V137.84Z" fill="#F5F5F5"/>
<path d="M1060.62 209.18H1029.96V272.58H1060.62V209.18Z" fill="#F5F5F5"/>
<path d="M1174.28 209.18H1141.18V272.58H1174.28V209.18Z" fill="#F5F5F5"/>
<path d="M1099.56 138.97H1061.89V204.59H1099.56V138.97Z" fill="#F5F5F5"/>
<path d="M1174.28 138.97H1141.18V204.59H1174.28V138.97Z" fill="#F5F5F5"/>
<path d="M1060.62 273.72H1029.96V330.85H1060.62V273.72Z" fill="#F5F5F5"/>
<path d="M1060.61 137.84V79.63H1061.89V137.84H1099.56V78.34H1029.96V137.84H1060.61Z" fill="#F5F5F5"/>
<path d="M1099.56 273.72H1061.89V330.85H1099.56V273.72Z" fill="#F5F5F5"/>
<path d="M1174.28 273.72H1141.18V330.85H1174.28V273.72Z" fill="#F5F5F5"/>
<path d="M1139.91 138.97H1104.14V204.59H1139.91V138.97Z" fill="#F5F5F5"/>
<path d="M1139.91 273.72H1104.14V330.85H1139.91V273.72Z" fill="#F5F5F5"/>
<path d="M1139.91 209.18H1104.14V272.58H1139.91V209.18Z" fill="#F5F5F5"/>
<path d="M823.46 138.97H792.8V204.59H823.46V138.97Z" fill="#F5F5F5"/>
<path d="M862.399 209.18H824.729V272.58H862.399V209.18Z" fill="#F5F5F5"/>
<path d="M866.979 137.84H902.749V79.63H904.029V137.84H937.13V78.34H866.979V137.84Z" fill="#F5F5F5"/>
<path d="M823.46 209.18H792.8V272.58H823.46V209.18Z" fill="#F5F5F5"/>
<path d="M937.13 209.18H904.03V272.58H937.13V209.18Z" fill="#F5F5F5"/>
<path d="M862.399 138.97H824.729V204.59H862.399V138.97Z" fill="#F5F5F5"/>
<path d="M937.13 138.97H904.03V204.59H937.13V138.97Z" fill="#F5F5F5"/>
<path d="M823.46 273.72H792.8V330.85H823.46V273.72Z" fill="#F5F5F5"/>
<path d="M823.46 137.84V79.63H824.73V137.84H862.4V78.34H792.8V137.84H823.46Z" fill="#F5F5F5"/>
<path d="M862.399 273.72H824.729V330.85H862.399V273.72Z" fill="#F5F5F5"/>
<path d="M937.13 273.72H904.03V330.85H937.13V273.72Z" fill="#F5F5F5"/>
<path d="M902.749 138.97H866.979V204.59H902.749V138.97Z" fill="#F5F5F5"/>
<path d="M902.749 273.72H866.979V330.85H902.749V273.72Z" fill="#F5F5F5"/>
<path d="M902.749 209.18H866.979V272.58H902.749V209.18Z" fill="#F5F5F5"/>
<path d="M1102.27 432.02V461.41H1145.25H1192.65V432.02H1102.27Z" fill="#EBEBEB"/>
<path d="M1098.48 423.8V432.02H1195.81V423.8H1145.25H1098.48Z" fill="#E0E0E0"/>
<path d="M1147.15 461.41H1192.65V432.02H1195.81V423.8H1145.25V431.26L1147.15 461.41Z" fill="#E0E0E0"/>
<path d="M1133.25 436.76H1114.92V441.18H1133.25V436.76Z" fill="#E0E0E0"/>
<path d="M1136.1 446.71H1112.56V456.05H1136.1V446.71Z" fill="#F5F5F5"/>
<path d="M1124.6 391.35L1124.47 380.31L1163.18 383.62L1164.39 394.55L1124.6 391.35Z" fill="#EBEBEB"/>
<path d="M1132.96 385.327L1132.79 387.31L1157 389.381L1157.17 387.398L1132.96 385.327Z" fill="#E0E0E0"/>
<path d="M1119.99 380.86L1119.97 369.81L1158.65 373.54L1159.63 383.42L1119.99 380.86Z" fill="#E0E0E0"/>
<path d="M1119.98 371.32L1119.96 378.77L1157.64 381.55L1157.01 374.67L1119.98 371.32Z" fill="white"/>
<path d="M1154.78 377.54C1154.32 377.582 1153.87 377.582 1153.41 377.54L1149.71 377.25C1146.58 376.98 1142.27 376.58 1137.5 376.1C1132.73 375.62 1128.43 375.15 1125.31 374.79L1121.62 374.33C1121.17 374.299 1120.72 374.219 1120.28 374.09C1120.73 374.048 1121.19 374.048 1121.64 374.09L1125.34 374.38C1128.47 374.65 1132.79 375.06 1137.55 375.54C1142.31 376.02 1146.63 376.48 1149.75 376.85L1153.44 377.3C1153.89 377.332 1154.34 377.413 1154.78 377.54Z" fill="#F5F5F5"/>
<path d="M1154.7 378.47C1154.24 378.52 1153.78 378.52 1153.33 378.47L1149.58 378.29C1146.43 378.12 1142.07 377.85 1137.26 377.51C1132.45 377.17 1128.09 376.84 1124.94 376.58L1121.22 376.24C1120.76 376.219 1120.3 376.152 1119.86 376.04C1120.31 375.99 1120.77 375.99 1121.23 376.04L1124.97 376.22C1128.13 376.39 1132.49 376.67 1137.3 377C1142.11 377.33 1146.46 377.67 1149.61 377.94L1153.34 378.28C1153.8 378.303 1154.25 378.367 1154.7 378.47Z" fill="#F5F5F5"/>
<path d="M1125.05 401.54L1124.9 390.49L1163.62 393.77L1164.72 403.63L1125.05 401.54Z" fill="#E0E0E0"/>
<path d="M1129.31 401.77C1128.99 399.975 1128.83 398.154 1128.84 396.33C1128.68 394.513 1128.69 392.684 1128.89 390.87C1129.22 392.665 1129.37 394.486 1129.36 396.31C1129.52 398.127 1129.51 399.956 1129.31 401.77Z" fill="#F5F5F5"/>
<path d="M1130.77 391C1131.06 392.794 1131.19 394.612 1131.15 396.43C1131.27 398.244 1131.22 400.065 1131.01 401.87C1130.7 400.077 1130.58 398.258 1130.63 396.44C1130.5 394.626 1130.55 392.805 1130.77 391Z" fill="#F5F5F5"/>
<path d="M1134.29 395.85C1141.04 396.6 1148.98 397.02 1155.84 397.63Z" fill="white"/>
<path d="M1155.84 397.63C1154.78 397.693 1153.72 397.666 1152.67 397.55C1150.67 397.45 1148.02 397.28 1145.04 397.06C1142.06 396.84 1139.37 396.59 1137.43 396.35C1136.37 396.284 1135.32 396.117 1134.29 395.85C1135.35 395.818 1136.41 395.865 1137.46 395.99L1145.08 396.54C1148.08 396.76 1150.75 396.98 1152.7 397.19C1153.76 397.248 1154.81 397.396 1155.84 397.63Z" fill="#F5F5F5"/>
<path d="M1158.66 403.32C1158.33 401.694 1158.16 400.039 1158.16 398.38C1157.99 396.718 1157.99 395.042 1158.16 393.38C1158.5 395.005 1158.66 396.661 1158.66 398.32C1158.84 399.982 1158.84 401.658 1158.66 403.32Z" fill="#F5F5F5"/>
<path d="M1161.05 403.44C1160.37 400.181 1160.04 396.859 1160.05 393.53C1160.47 395.142 1160.73 396.795 1160.8 398.46C1161.05 400.107 1161.14 401.776 1161.05 403.44Z" fill="#F5F5F5"/>
<path d="M1140 398.33C1144.26 398.62 1147.51 398.83 1150.91 398.91Z" fill="white"/>
<path d="M1151 398.91C1147.35 399.064 1143.7 398.87 1140.09 398.33C1141.91 398.153 1143.74 398.153 1145.56 398.33C1147.39 398.353 1149.21 398.547 1151 398.91Z" fill="#F5F5F5"/>
<path d="M1127.64 423.12L1126.92 412.09L1165.75 413.32L1167.37 423.11L1127.64 423.12Z" fill="#EBEBEB"/>
<path d="M1129.18 421.73L1166.97 421.19L1165.92 414.33L1128.47 413.63L1129.18 421.73Z" fill="white"/>
<path d="M1128.7 412.31L1128.34 401.26L1167.12 403.79L1168.41 413.63L1128.7 412.31Z" fill="#F5F5F5"/>
<path d="M1136.9 406.084L1136.78 408.069L1161.02 409.646L1161.15 407.66L1136.9 406.084Z" fill="#E0E0E0"/>
<path d="M1166.31 417.15C1165.82 417.232 1165.32 417.269 1164.82 417.26L1160.82 417.36C1157.41 417.42 1152.69 417.47 1147.48 417.49C1142.27 417.51 1137.56 417.49 1134.14 417.49L1130.14 417.42C1129.65 417.435 1129.15 417.404 1128.66 417.33C1129.15 417.246 1129.64 417.209 1130.14 417.22L1134.14 417.12C1137.55 417.06 1142.27 417.02 1147.48 416.99C1152.69 416.96 1157.41 416.99 1160.82 416.99L1164.87 417.06C1165.35 417.048 1165.83 417.079 1166.31 417.15Z" fill="#EBEBEB"/>
<path d="M1166.75 419.29C1166.26 419.37 1165.76 419.396 1165.26 419.37H1161.18C1157.75 419.37 1153 419.37 1147.75 419.26C1142.5 419.15 1137.75 419.09 1134.32 419L1130.25 418.86C1129.75 418.87 1129.25 418.83 1128.76 418.74C1129.25 418.667 1129.75 418.64 1130.25 418.66H1134.32C1137.76 418.66 1142.51 418.66 1147.76 418.77C1153.01 418.88 1157.76 418.94 1161.19 419.03L1165.26 419.17C1165.76 419.173 1166.26 419.213 1166.75 419.29Z" fill="#EBEBEB"/>
<path d="M1185.17 461.41C1185.17 461.56 1088.83 461.67 970.01 461.67C851.19 461.67 754.83 461.56 754.83 461.41C754.83 461.26 851.15 461.15 970.01 461.15C1088.87 461.15 1185.17 461.27 1185.17 461.41Z" fill="#263238"/>
<path d="M788 337.25C782.71 338.1 780.34 344.6 780.8 349.94C781.26 355.28 783.46 360.5 782.87 365.83C782.13 372.59 777.01 378.31 776.42 385.09C775.72 393.09 781.42 400.18 783.06 408.03C783.88 411.85 783.77 415.88 785.19 419.52C786.401 422.616 788.648 425.197 791.548 426.822C794.449 428.447 797.823 429.016 801.096 428.432C804.369 427.849 807.338 426.148 809.498 423.62C811.658 421.092 812.874 417.894 812.94 414.57C813.05 408.43 809.27 402.64 809.73 396.52C810.07 391.99 812.73 387.7 812.15 383.2C811.47 377.84 806.51 374.04 804.76 368.93C803.01 363.82 804.69 358.19 804.08 352.82C803 343.19 797.63 336.47 788 337.25Z" fill="#B0BEC5"/>
<path d="M760.94 383.88C760 392.8 764 403.3 768.58 411C773.234 418.759 780.24 424.833 788.58 428.34C789.51 428.73 790.67 429.05 791.46 428.42C791.738 428.112 791.946 427.749 792.072 427.354C792.198 426.959 792.238 426.542 792.19 426.13C792.25 416.657 789.24 407.42 783.61 399.801C777.98 392.182 770.033 386.593 760.96 383.87" fill="#B0BEC5"/>
<g opacity="0.1">
<path d="M760.94 383.88C760 392.8 764 403.3 768.58 411C773.234 418.759 780.24 424.833 788.58 428.34C789.51 428.73 790.67 429.05 791.46 428.42C791.738 428.112 791.946 427.749 792.072 427.354C792.198 426.959 792.238 426.542 792.19 426.13C792.25 416.657 789.24 407.42 783.61 399.801C777.98 392.182 770.033 386.593 760.96 383.87" fill="black"/>
</g>
<path d="M799.82 447C799.713 446.848 799.626 446.684 799.56 446.51C799.4 446.12 799.18 445.64 798.93 445.05C798.39 443.77 797.59 441.94 796.57 439.68C794.57 435.18 791.51 429.05 787.71 422.53C784.449 416.976 780.911 411.589 777.11 406.39C775.65 404.39 774.44 402.8 773.6 401.71L772.6 400.43C772.38 400.14 772.27 399.98 772.29 399.97C772.431 400.092 772.562 400.226 772.68 400.37L773.68 401.58C774.58 402.64 775.83 404.21 777.33 406.18C781.227 411.331 784.817 416.707 788.08 422.28C791.335 427.856 794.256 433.619 796.83 439.54C797.83 441.81 798.56 443.67 799.04 444.97L799.59 446.47C799.684 446.639 799.761 446.816 799.82 447Z" fill="#263238"/>
<path d="M794.07 361.93C794.125 362.214 794.159 362.501 794.17 362.79C794.21 363.397 794.27 364.217 794.35 365.25C794.49 367.43 794.69 370.51 794.93 374.25C795.41 381.89 796.09 392.43 796.93 404.08C797.77 415.73 798.56 426.26 799.15 433.89C799.44 437.67 799.67 440.74 799.84 442.89C799.91 443.89 799.96 444.74 800.01 445.34C800.034 445.626 800.034 445.914 800.01 446.2C799.943 445.921 799.9 445.636 799.88 445.35C799.82 444.75 799.73 443.93 799.62 442.9C799.42 440.72 799.13 437.65 798.77 433.9C798.09 426.28 797.22 415.74 796.4 404.09C795.58 392.44 795 382 794.57 374.31C794.4 370.52 794.25 367.44 794.15 365.26C794.15 364.26 794.09 363.4 794.07 362.8C794.05 362.51 794.05 362.22 794.07 361.93Z" fill="#263238"/>
<path d="M785.86 434.28H808.21V450.69C808.21 453.533 807.081 456.26 805.071 458.27C803.06 460.281 800.333 461.41 797.49 461.41C794.744 461.411 792.102 460.36 790.107 458.472C788.113 456.583 786.919 454.002 786.77 451.26L785.86 434.28Z" fill="#455A64"/>
<path d="M1076.92 299.29C1075.68 298.37 1074.14 297.93 1072.6 298.05C1072.6 297.21 1072.6 296.7 1072.6 296.7H1049C1049 296.7 1048.26 312.27 1060.18 312.82C1065.52 313.07 1068.57 310.68 1070.32 307.67C1071.2 307.878 1072.1 307.989 1073 308C1074.32 308.058 1075.62 307.69 1076.71 306.95C1077.31 306.48 1077.79 305.869 1078.1 305.172C1078.41 304.474 1078.54 303.711 1078.49 302.95C1078.52 302.261 1078.4 301.573 1078.13 300.939C1077.85 300.305 1077.44 299.741 1076.92 299.29ZM1075.3 305.08C1074.3 305.83 1072.49 305.72 1071.3 305.51C1071.89 303.854 1072.28 302.131 1072.45 300.38C1073.48 300.26 1074.53 300.504 1075.4 301.07C1075.66 301.307 1075.85 301.6 1075.98 301.926C1076.1 302.252 1076.15 302.602 1076.12 302.95C1076.17 303.345 1076.12 303.745 1075.97 304.116C1075.83 304.487 1075.6 304.818 1075.3 305.08Z" fill="#B0BEC5"/>
<path d="M1065.67 295.28C1065.79 295.105 1065.86 294.901 1065.87 294.69C1065.83 294.389 1065.72 294.102 1065.55 293.854C1065.38 293.606 1065.14 293.405 1064.87 293.27C1064.47 293.077 1064.05 292.933 1063.62 292.84C1063.08 292.721 1062.56 292.49 1062.11 292.16C1061.86 291.943 1061.66 291.673 1061.53 291.371C1061.4 291.068 1061.33 290.74 1061.34 290.41C1061.34 289.682 1061.55 288.969 1061.93 288.35C1062.74 287.04 1064.2 286.21 1065.23 284.91C1065.75 284.199 1066.09 283.377 1066.24 282.51C1066.39 281.642 1066.33 280.752 1066.08 279.91C1065.83 278.995 1065.35 278.158 1064.69 277.48C1063.94 276.818 1063.09 276.279 1062.17 275.88C1061.15 275.458 1060.23 274.804 1059.5 273.97C1059.15 273.502 1058.91 272.962 1058.8 272.39C1058.67 271.788 1058.75 271.158 1059.03 270.61C1059.19 270.328 1059.41 270.087 1059.68 269.91L1059.95 270.36C1059.09 270.893 1058.42 271.674 1058.01 272.598C1057.61 273.523 1057.49 274.548 1057.68 275.54C1057.84 276.481 1058.31 277.344 1059 278C1059.78 278.598 1060.47 279.305 1061.05 280.1C1061.3 280.546 1061.41 281.051 1061.39 281.56C1061.38 282.064 1061.24 282.557 1061 283C1060.56 283.784 1059.94 284.45 1059.18 284.94C1057.73 285.86 1056.24 286.32 1055.13 287.16C1054.63 287.518 1054.21 287.98 1053.91 288.516C1053.6 289.051 1053.41 289.646 1053.36 290.26C1053.27 291.196 1053.43 292.14 1053.83 292.99C1054.2 293.707 1054.72 294.332 1055.36 294.82L1055.21 294.75C1055.07 294.673 1054.94 294.586 1054.82 294.49C1054.33 294.112 1053.93 293.63 1053.65 293.08C1053.2 292.202 1053 291.215 1053.08 290.23C1053.12 289.61 1053.29 289.005 1053.57 288.45C1053.9 287.831 1054.35 287.292 1054.91 286.87C1056.06 285.97 1057.59 285.47 1058.91 284.59C1059.6 284.127 1060.16 283.511 1060.57 282.79C1060.78 282.425 1060.89 282.011 1060.89 281.59C1060.89 281.169 1060.78 280.756 1060.57 280.39C1060 279.636 1059.32 278.964 1058.57 278.39C1057.8 277.66 1057.29 276.692 1057.12 275.64C1056.91 274.544 1057.04 273.41 1057.49 272.389C1057.94 271.368 1058.69 270.507 1059.64 269.92L1059.9 270.37C1059.7 270.502 1059.54 270.676 1059.42 270.88C1059.24 271.345 1059.18 271.851 1059.26 272.345C1059.34 272.839 1059.54 273.303 1059.86 273.69C1060.55 274.455 1061.39 275.056 1062.34 275.45C1063.31 275.872 1064.2 276.446 1064.98 277.15C1065.7 277.89 1066.22 278.802 1066.48 279.8C1066.74 280.713 1066.78 281.674 1066.61 282.607C1066.44 283.54 1066.05 284.421 1065.48 285.18C1064.35 286.55 1062.91 287.35 1062.16 288.54C1061.41 289.73 1061.34 291.23 1062.21 291.94C1063.08 292.65 1064.21 292.63 1064.89 293.09C1065.18 293.247 1065.43 293.476 1065.6 293.757C1065.78 294.038 1065.88 294.359 1065.89 294.69C1065.88 294.86 1065.82 295.023 1065.72 295.16C1065.72 295.25 1065.68 295.28 1065.67 295.28Z" fill="#263238"/>
<path d="M918.56 171.82H803.49C801.706 171.82 800.26 173.266 800.26 175.05V202.66C800.26 204.444 801.706 205.89 803.49 205.89H918.56C920.344 205.89 921.79 204.444 921.79 202.66V175.05C921.79 173.266 920.344 171.82 918.56 171.82Z" fill="#455A64"/>
<path d="M825.88 194.54C824.963 195.68 823.729 196.524 822.334 196.963C820.938 197.402 819.443 197.418 818.039 197.008C816.634 196.598 815.383 195.781 814.442 194.66C813.502 193.539 812.915 192.164 812.756 190.71C812.597 189.255 812.872 187.786 813.547 186.488C814.223 185.19 815.268 184.122 816.55 183.418C817.833 182.713 819.296 182.405 820.753 182.532C822.211 182.659 823.598 183.215 824.74 184.13C825.499 184.738 826.13 185.49 826.599 186.343C827.067 187.195 827.362 188.132 827.468 189.099C827.574 190.066 827.488 191.044 827.216 191.977C826.943 192.911 826.489 193.782 825.88 194.54Z" fill="white"/>
<path d="M824.27 187.39C823.063 188.927 821.725 190.356 820.27 191.66C819.93 191.98 819.6 192.29 819.27 192.6L819.09 192.78L818.91 192.6C817.801 191.586 816.796 190.464 815.91 189.25C817.124 190.136 818.247 191.141 819.26 192.25H818.9L819.9 191.25C821.241 189.838 822.703 188.546 824.27 187.39Z" fill="#B0BEC5"/>
<path d="M909.94 186.36C909.94 186.5 894.49 186.62 875.43 186.62C856.37 186.62 840.93 186.5 840.93 186.36C840.93 186.22 856.37 186.1 875.43 186.1C894.49 186.1 909.94 186.21 909.94 186.36Z" fill="white"/>
<path d="M881.629 193.1C881.629 193.24 872.699 193.36 861.689 193.36C850.679 193.36 841.689 193.24 841.689 193.1C841.689 192.96 850.619 192.84 861.689 192.84C872.759 192.84 881.629 193 881.629 193.1Z" fill="white"/>
<path d="M918.56 210.79H803.49C801.706 210.79 800.26 212.236 800.26 214.02V241.63C800.26 243.414 801.706 244.86 803.49 244.86H918.56C920.344 244.86 921.79 243.414 921.79 241.63V214.02C921.79 212.236 920.344 210.79 918.56 210.79Z" fill="#455A64"/>
<path d="M825.88 233.51C824.963 234.65 823.729 235.494 822.334 235.933C820.938 236.372 819.443 236.388 818.039 235.978C816.634 235.568 815.383 234.751 814.442 233.63C813.502 232.509 812.915 231.134 812.756 229.68C812.597 228.225 812.872 226.756 813.547 225.458C814.223 224.16 815.268 223.092 816.55 222.388C817.833 221.683 819.296 221.375 820.753 221.502C822.211 221.629 823.598 222.185 824.74 223.1C826.27 224.33 827.25 226.117 827.464 228.069C827.678 230.021 827.108 231.978 825.88 233.51Z" fill="white"/>
<path d="M824.27 226.37C823.065 227.905 821.726 229.33 820.27 230.63L819.27 231.63L819.09 231.8L818.91 231.62C817.801 230.606 816.796 229.484 815.91 228.27C817.122 229.158 818.244 230.163 819.26 231.27H818.9L819.9 230.27C821.236 228.84 822.699 227.535 824.27 226.37Z" fill="#B0BEC5"/>
<path d="M909.94 225.33C909.94 225.48 894.49 225.59 875.43 225.59C856.37 225.59 840.93 225.48 840.93 225.33C840.93 225.18 856.37 225.07 875.43 225.07C894.49 225.07 909.94 225.19 909.94 225.33Z" fill="white"/>
<path d="M881.629 232.07C881.629 232.22 872.699 232.33 861.689 232.33C850.679 232.33 841.689 232.22 841.689 232.07C841.689 231.92 850.619 231.81 861.689 231.81C872.759 231.81 881.629 231.93 881.629 232.07Z" fill="white"/>
<path d="M918.56 249.77H803.49C801.706 249.77 800.26 251.216 800.26 253V280.61C800.26 282.394 801.706 283.84 803.49 283.84H918.56C920.344 283.84 921.79 282.394 921.79 280.61V253C921.79 251.216 920.344 249.77 918.56 249.77Z" fill="#455A64"/>
<path d="M825.88 272.49C824.963 273.63 823.729 274.474 822.334 274.913C820.938 275.352 819.443 275.368 818.039 274.958C816.634 274.548 815.383 273.731 814.442 272.61C813.502 271.489 812.915 270.114 812.756 268.66C812.597 267.205 812.872 265.736 813.547 264.438C814.223 263.14 815.268 262.072 816.55 261.368C817.833 260.663 819.296 260.355 820.753 260.482C822.211 260.609 823.598 261.165 824.74 262.08C825.499 262.688 826.13 263.44 826.599 264.293C827.067 265.145 827.362 266.082 827.468 267.049C827.574 268.016 827.488 268.994 827.216 269.927C826.943 270.861 826.489 271.732 825.88 272.49Z" fill="white"/>
<path d="M824.27 265.34C823.069 266.882 821.731 268.311 820.27 269.61L819.27 270.55L819.09 270.73L818.91 270.55C817.801 269.536 816.796 268.414 815.91 267.2C817.124 268.086 818.247 269.091 819.26 270.2H818.9L819.9 269.2C821.241 267.788 822.703 266.496 824.27 265.34Z" fill="#B0BEC5"/>
<path d="M909.94 264.31C909.94 264.45 894.49 264.57 875.43 264.57C856.37 264.57 840.93 264.45 840.93 264.31C840.93 264.17 856.37 264.05 875.43 264.05C894.49 264.05 909.94 264.17 909.94 264.31Z" fill="white"/>
<path d="M881.629 271.05C881.629 271.19 872.699 271.31 861.689 271.31C850.679 271.31 841.689 271.19 841.689 271.05C841.689 270.91 850.619 270.79 861.689 270.79C872.759 270.79 881.629 270.91 881.629 271.05Z" fill="white"/>
<path d="M990.67 378.78L988.76 461.41H985.12L985.35 378.99L990.67 378.78Z" fill="#263238"/>
<path d="M1003.84 377.86L1021.56 461.41H1025.62L1010.87 377.86H1003.84Z" fill="#263238"/>
<path d="M970.62 378.78L951.01 461.41H946.95L964.74 378.44L970.62 378.78Z" fill="#263238"/>
<path d="M1026.85 287.94C1026.85 287.94 1049.31 286.66 1047.07 312.65C1044.83 338.64 1043.54 365 1035.19 374C1026.84 383 942.76 383.31 935.7 375.93C928.64 368.55 949.18 368.87 953.03 368.87C956.88 368.87 980.63 371.11 988.33 350.87C996.03 330.63 994.11 286.66 1026.85 287.94Z" fill="#263238"/>
<path d="M1028.29 288C1028.29 288 1045.46 291.52 1043.86 309.49C1042.26 327.46 1037.76 358.92 1029.41 366.94C1021.06 374.96 988.41 376.71 970.68 375.61C950.14 374.32 937.18 370.41 937.18 370.41C937.18 370.41 933.43 372.82 934.56 374.41C935.69 376 945.71 382.21 994.26 381.17C1042.81 380.13 1039.44 372.97 1041.45 365.17C1043.46 357.37 1047.7 315.63 1047.11 306.46C1046.52 297.29 1041.9 289.56 1028.29 288Z" fill="#455A64"/>
<path d="M980.05 211.73C982.752 210.799 985.686 210.784 988.398 211.687C991.109 212.591 993.447 214.364 995.05 216.73C997.22 220.09 997.73 224.31 999.94 227.64C1001.51 229.99 1003.83 231.72 1005.75 233.8C1007.67 235.88 1009.24 238.63 1008.75 241.42C1008.29 244.03 1006.08 246.35 1006.52 248.97C1006.94 251.42 1009.52 253.02 1010.07 255.46C1010.66 258.33 1007.9 261.01 1005 261.46C1002.1 261.91 999.22 260.79 996.49 259.71C993.76 258.63 990.86 257.55 987.97 258.07C984.62 258.68 982.05 261.31 979.12 263.07C976.031 264.835 972.495 265.663 968.943 265.451C965.391 265.24 961.978 263.999 959.12 261.88C956.92 260.19 954.99 257.57 955.53 254.88C956.03 252.34 958.53 250.58 959.19 248.09C960.25 244.39 957.19 240.61 957.64 236.78C958.26 231.64 964.64 229.29 966.92 224.65C968.03 222.42 968.13 219.82 969.1 217.53C970.07 215.24 972.63 213.2 974.91 214.18" fill="#263238"/>
<path d="M977.89 258.51C978.22 256.68 977.63 248.98 977.63 248.98C977.63 248.98 970.81 248.12 970.51 241.15C970.21 234.18 970.91 218.15 970.91 218.15L983.48 212.15L994.48 224.65L994.69 258.44L977.89 258.51Z" fill="#FFBE9D"/>
<path d="M971.8 230.44C971.802 230.611 971.854 230.777 971.95 230.918C972.046 231.06 972.181 231.17 972.339 231.235C972.497 231.299 972.671 231.316 972.838 231.283C973.006 231.25 973.16 231.168 973.281 231.048C973.403 230.928 973.486 230.775 973.521 230.608C973.556 230.441 973.541 230.267 973.478 230.108C973.415 229.95 973.307 229.813 973.167 229.716C973.026 229.618 972.861 229.564 972.69 229.56C972.455 229.56 972.231 229.652 972.064 229.817C971.897 229.982 971.802 230.206 971.8 230.44Z" fill="#263238"/>
<path d="M971.24 228.88C971.35 229 972.01 228.45 972.94 228.41C973.87 228.37 974.57 228.85 974.67 228.72C974.77 228.59 974.61 228.45 974.3 228.23C973.894 227.947 973.406 227.807 972.912 227.83C972.419 227.854 971.947 228.04 971.57 228.36C971.28 228.6 971.19 228.83 971.24 228.88Z" fill="#263238"/>
<path d="M982 230.44C981.987 230.561 982 230.684 982.037 230.8C982.075 230.917 982.136 231.024 982.218 231.114C982.299 231.205 982.399 231.278 982.511 231.328C982.622 231.377 982.743 231.403 982.865 231.403C982.987 231.403 983.108 231.377 983.219 231.328C983.331 231.278 983.431 231.205 983.512 231.114C983.594 231.024 983.656 230.917 983.693 230.8C983.731 230.684 983.743 230.561 983.73 230.44C983.743 230.319 983.731 230.196 983.693 230.08C983.656 229.963 983.594 229.856 983.512 229.766C983.431 229.675 983.331 229.602 983.219 229.552C983.108 229.503 982.987 229.477 982.865 229.477C982.743 229.477 982.622 229.503 982.511 229.552C982.399 229.602 982.299 229.675 982.218 229.766C982.136 229.856 982.075 229.963 982.037 230.08C982 230.196 981.987 230.319 982 230.44Z" fill="#263238"/>
<path d="M981.6 229.06C981.71 229.18 982.37 228.63 983.3 228.59C984.23 228.55 984.93 229.03 985.03 228.9C985.13 228.77 984.97 228.63 984.66 228.41C984.257 228.129 983.772 227.988 983.28 228.01C982.786 228.034 982.313 228.216 981.93 228.53C981.65 228.78 981.55 229 981.6 229.06Z" fill="#263238"/>
<path d="M978.09 237.1C977.596 236.953 977.085 236.876 976.57 236.87C976.33 236.87 976.1 236.81 976.06 236.64C976.038 236.374 976.09 236.108 976.21 235.87C976.42 235.25 976.65 234.59 976.88 233.87C977.507 232.189 978.012 230.464 978.39 228.71C977.633 230.326 977.002 231.998 976.5 233.71C976.28 234.41 976.06 235.07 975.85 235.71C975.711 236.024 975.676 236.375 975.75 236.71C975.782 236.798 975.835 236.877 975.905 236.94C975.975 237.003 976.059 237.048 976.15 237.07C976.283 237.088 976.417 237.088 976.55 237.07C977.059 237.154 977.578 237.164 978.09 237.1Z" fill="#263238"/>
<path d="M977.63 249C980.858 248.895 983.985 247.853 986.63 246C986.63 246 984.51 251.08 977.71 250.67L977.63 249Z" fill="#EB996E"/>
<path d="M978.43 239.56C978.487 239.266 978.616 238.99 978.804 238.756C978.992 238.522 979.235 238.338 979.51 238.22C979.7 238.134 979.906 238.089 980.115 238.089C980.324 238.089 980.53 238.134 980.72 238.22C980.903 238.311 981.054 238.455 981.152 238.634C981.25 238.813 981.291 239.017 981.27 239.22C981.214 239.453 981.088 239.664 980.91 239.825C980.731 239.986 980.508 240.088 980.27 240.12C979.805 240.182 979.332 240.148 978.88 240.02C978.753 240 978.631 239.956 978.52 239.89C978.466 239.856 978.422 239.806 978.396 239.747C978.369 239.689 978.36 239.624 978.37 239.56" fill="#EB996E"/>
<path d="M980.75 237.07C980.81 237.07 980.92 237.32 980.89 237.77C980.834 238.373 980.56 238.934 980.12 239.35C979.683 239.763 979.11 240.002 978.51 240.02C978.05 240.02 977.79 239.9 977.81 239.84C977.83 239.78 978.9 239.78 979.76 238.97C980.62 238.16 980.6 237.06 980.75 237.07Z" fill="#263238"/>
<path d="M970.34 217.36C970.591 219.379 971.569 221.237 973.092 222.586C974.614 223.936 976.576 224.684 978.61 224.69L976.72 220.53C978.4 222.48 980.14 224.53 982.45 225.65C984.76 226.77 987.77 226.95 989.73 225.27C990.37 226.98 990.36 228.87 990.95 230.59C991.54 232.31 992.95 239.43 994.71 239.15C996.47 238.87 997.54 231.74 997.96 230.15C998.465 227.889 998.432 225.542 997.865 223.296C997.297 221.05 996.209 218.969 994.69 217.22C992.9 215.132 990.65 213.489 988.116 212.42C985.582 211.351 982.835 210.886 980.09 211.06C977.644 211.168 975.284 212 973.31 213.45C971.625 214.795 970.45 216.675 969.98 218.78" fill="#263238"/>
<path d="M961 248.76C960.835 248.749 960.673 248.712 960.52 248.65C960.075 248.515 959.646 248.334 959.24 248.11C957.712 247.295 956.449 246.06 955.6 244.55C954.942 243.435 954.543 242.187 954.432 240.898C954.321 239.608 954.502 238.31 954.96 237.1C955.502 235.669 956.376 234.387 957.51 233.36C958.726 232.254 960.219 231.497 961.83 231.17C962.578 231.064 963.275 230.733 963.83 230.22C964.297 229.655 964.567 228.953 964.6 228.22C964.72 226.75 964.14 225.32 963.98 223.88C963.805 222.494 964.09 221.089 964.79 219.88C965.405 218.833 966.302 217.98 967.38 217.42C968.38 216.91 969.27 216.58 970.04 216.24C970.714 215.978 971.358 215.642 971.96 215.24C972.452 214.874 972.893 214.444 973.27 213.96C973.214 214.114 973.137 214.259 973.04 214.39C972.767 214.779 972.429 215.117 972.04 215.39C971.444 215.832 970.8 216.204 970.12 216.5C969.35 216.86 968.44 217.22 967.52 217.73C966.517 218.276 965.689 219.094 965.13 220.09C964.482 221.223 964.229 222.538 964.41 223.83C964.57 225.2 965.18 226.63 965.07 228.27C965.036 229.122 964.72 229.938 964.17 230.59C963.544 231.183 962.752 231.57 961.9 231.7C960.428 232.01 959.057 232.684 957.913 233.661C956.769 234.637 955.887 235.885 955.35 237.29C954.908 238.438 954.724 239.67 954.812 240.897C954.901 242.124 955.258 243.317 955.86 244.39C956.658 245.866 957.84 247.099 959.28 247.96C960.34 248.54 961 248.71 961 248.76Z" fill="#263238"/>
<path d="M1006.27 257.92C1006.27 257.92 1006.86 257.52 1007.89 256.78C1009.38 255.792 1010.57 254.407 1011.31 252.78C1011.76 251.651 1011.83 250.403 1011.51 249.23C1011.33 248.595 1010.98 248.019 1010.51 247.56C1009.97 247.087 1009.37 246.683 1008.73 246.36C1007.99 245.963 1007.37 245.381 1006.92 244.671C1006.48 243.961 1006.23 243.147 1006.19 242.31C1006.12 240.5 1007.24 239 1007.64 237.39C1007.98 235.772 1007.71 234.084 1006.89 232.65C1006.13 231.284 1005.11 230.079 1003.89 229.1C1001.6 227.18 999.21 225.77 997.56 224.1C996.2 222.857 995.187 221.283 994.62 219.53C994.483 219.051 994.402 218.558 994.38 218.06C994.354 217.888 994.354 217.712 994.38 217.54C994.463 218.193 994.596 218.838 994.78 219.47C995.405 221.151 996.436 222.652 997.78 223.84C999.42 225.41 1001.78 226.76 1004.16 228.71C1005.42 229.722 1006.48 230.968 1007.27 232.38C1008.17 233.924 1008.45 235.745 1008.08 237.49C1007.62 239.24 1006.55 240.68 1006.63 242.27C1006.65 243.047 1006.89 243.803 1007.3 244.459C1007.72 245.115 1008.31 245.648 1009 246C1009.67 246.347 1010.3 246.777 1010.87 247.28C1011.39 247.803 1011.76 248.451 1011.95 249.16C1012.28 250.421 1012.19 251.755 1011.69 252.96C1011.27 253.931 1010.65 254.806 1009.88 255.53C1009.3 256.076 1008.67 256.568 1008 257C1007.46 257.35 1007 257.6 1006.73 257.75C1006.58 257.827 1006.43 257.884 1006.27 257.92Z" fill="#263238"/>
<path d="M970.11 225.7C971.077 224.897 971.757 223.802 972.05 222.58C972.335 221.363 972.486 220.119 972.5 218.87C972.5 218.51 972.5 218.04 972.12 217.95C971.74 217.86 971.5 218.2 971.34 218.51C970.117 220.825 969.685 223.477 970.11 226.06L970.33 225.85" fill="#263238"/>
<path d="M952.66 456.46L952.47 447.46L969.31 447L969.72 460.15L968.72 460.25C964.08 460.63 945.1 461.87 941.97 461.01C938.44 460.06 952.66 456.46 952.66 456.46Z" fill="#B0BEC5"/>
<g opacity="0.5">
<path d="M963.61 460.2C963.821 458.77 964.555 457.469 965.67 456.55C966.755 455.629 968.149 455.154 969.57 455.22L969.7 459.92L963.61 460.2Z" fill="white"/>
</g>
<g opacity="0.4">
<path d="M945.72 458.47C945.72 458.47 940.72 460.05 941.39 460.86C942.06 461.67 961.26 461.14 969.72 460.16V459.79L947.29 460.6C947.29 460.6 946.7 458.48 945.72 458.47Z" fill="white"/>
</g>
<path d="M970 459.77H969.71L968.88 459.84L965.82 460.06C963.24 460.22 959.67 460.4 955.72 460.52C951.77 460.64 948.2 460.65 945.61 460.63C948.2 460.63 951.77 460.56 955.72 460.45C959.67 460.34 963.23 460.18 965.82 460.06L968.88 459.9H969.71L970 459.77Z" fill="#263238"/>
<path d="M947.28 460.86C947.126 460.356 946.918 459.87 946.66 459.41C946.351 458.988 945.992 458.605 945.59 458.27C946.102 458.478 946.539 458.837 946.841 459.3C947.143 459.763 947.296 460.307 947.28 460.86Z" fill="#263238"/>
<path d="M952.181 458.2C952.131 458.2 951.881 457.95 951.631 457.57C951.381 457.19 951.201 456.86 951.251 456.82C951.301 456.78 951.541 457.08 951.801 457.46C951.978 457.677 952.107 457.929 952.181 458.2Z" fill="#263238"/>
<path d="M953.52 457.44C953.52 457.49 953.21 457.32 952.92 457.06C952.63 456.8 952.41 456.57 952.44 456.53C952.47 456.49 952.75 456.65 953.05 456.91C953.35 457.17 953.56 457.4 953.52 457.44Z" fill="#263238"/>
<path d="M954.34 455.83C954.062 455.945 953.76 455.993 953.46 455.97C953.165 456.005 952.866 455.981 952.58 455.9C953.153 455.736 953.756 455.712 954.34 455.83Z" fill="#263238"/>
<path d="M954.601 454.7C954.31 454.91 953.959 455.019 953.601 455.01C953.265 455.073 952.918 455.038 952.601 454.91C952.93 454.846 953.265 454.812 953.601 454.81C953.931 454.748 954.265 454.711 954.601 454.7Z" fill="#263238"/>
<path d="M951.56 456.75C951.202 456.809 950.837 456.809 950.48 456.75C950.087 456.711 949.699 456.638 949.32 456.53C949.092 456.47 948.87 456.386 948.66 456.28C948.53 456.207 948.43 456.09 948.38 455.95C948.36 455.87 948.364 455.786 948.39 455.708C948.417 455.63 948.465 455.561 948.53 455.51C948.935 455.296 949.402 455.228 949.852 455.317C950.301 455.407 950.707 455.648 951 456C951.171 456.208 951.297 456.45 951.37 456.71C951.392 456.809 951.392 456.911 951.37 457.01C951.249 456.679 951.073 456.372 950.85 456.1C950.6 455.819 950.273 455.617 949.91 455.52C949.481 455.389 949.017 455.432 948.62 455.64C948.46 455.78 948.53 455.98 948.72 456.09C948.918 456.191 949.126 456.271 949.34 456.33C949.706 456.446 950.08 456.533 950.46 456.59C951.15 456.73 951.56 456.71 951.56 456.75Z" fill="#263238"/>
<path d="M951.29 456.81C951.143 456.59 951.089 456.32 951.14 456.06C951.167 455.776 951.26 455.502 951.41 455.26C951.498 455.097 951.626 454.96 951.781 454.86C951.937 454.76 952.116 454.702 952.3 454.69C952.411 454.71 952.51 454.772 952.575 454.864C952.641 454.955 952.667 455.069 952.65 455.18C952.624 455.352 952.566 455.519 952.48 455.67C952.341 455.91 952.173 456.132 951.98 456.33C951.822 456.531 951.616 456.69 951.38 456.79C951.38 456.79 951.59 456.59 951.88 456.24C952.041 456.032 952.185 455.812 952.31 455.58C952.45 455.34 952.54 454.93 952.31 454.89C952.08 454.85 951.77 455.15 951.61 455.37C951.466 455.585 951.368 455.826 951.32 456.08C951.282 456.321 951.272 456.566 951.29 456.81Z" fill="#263238"/>
<path d="M969.48 455.17C969.48 455.17 969 455.17 968.24 455.25C967.249 455.383 966.315 455.796 965.55 456.441C964.785 457.086 964.22 457.935 963.92 458.89C963.69 459.62 963.67 460.1 963.64 460.1C963.61 460.1 963.64 459.98 963.64 459.76C963.658 459.452 963.712 459.146 963.8 458.85C964.074 457.852 964.642 456.96 965.43 456.29C966.226 455.628 967.201 455.217 968.23 455.11C968.539 455.074 968.851 455.074 969.16 455.11C969.269 455.114 969.377 455.134 969.48 455.17Z" fill="#263238"/>
<path d="M967.54 448.21C967.693 449.357 967.773 450.513 967.78 451.67C967.851 452.822 967.851 453.978 967.78 455.13C967.632 453.986 967.552 452.834 967.54 451.68C967.475 450.524 967.475 449.366 967.54 448.21Z" fill="#263238"/>
<path d="M961.45 458.61C960.652 458.828 959.827 458.933 959 458.92C958.175 458.986 957.345 458.946 956.53 458.8C956.53 458.74 957.64 458.8 958.99 458.72C960.34 458.64 961.44 458.55 961.45 458.61Z" fill="#263238"/>
<path d="M964.75 458.52C964.75 458.52 964.67 458.75 964.56 459.01C964.45 459.27 964.4 459.49 964.34 459.49C964.28 459.49 964.25 459.22 964.34 458.93C964.43 458.64 964.71 458.48 964.75 458.52Z" fill="#263238"/>
<path d="M966 456.94C966 456.94 965.94 457.15 965.77 457.33C965.6 457.51 965.43 457.63 965.39 457.59C965.35 457.55 965.45 457.38 965.62 457.19C965.79 457 965.91 456.9 966 456.94Z" fill="#263238"/>
<path d="M967.71 456.18C967.71 456.24 967.48 456.24 967.23 456.33C966.98 456.42 966.81 456.57 966.77 456.53C966.73 456.49 966.86 456.25 967.16 456.14C967.46 456.03 967.73 456.13 967.71 456.18Z" fill="#263238"/>
<path d="M969 455.81C969 455.86 968.93 455.95 968.79 456.01C968.65 456.07 968.52 456.07 968.5 456.01C968.48 455.95 968.57 455.87 968.71 455.81C968.85 455.75 969 455.76 969 455.81Z" fill="#263238"/>
<path d="M912 408.35L915.9 400.25L931.13 407.47L925.54 419.38L924.54 418.99C920.23 417.24 902.74 409.75 900.34 407.57C897.68 405.14 912 408.35 912 408.35Z" fill="#B0BEC5"/>
<g opacity="0.5">
<path d="M920.07 416.64C920.905 415.465 922.144 414.639 923.55 414.32C924.935 413.996 926.391 414.203 927.63 414.9L925.63 419.16L920.07 416.64Z" fill="white"/>
</g>
<g opacity="0.4">
<path d="M904.891 407C904.891 407 899.741 406.16 899.951 407.17C900.161 408.18 917.541 416.41 925.531 419.37L925.671 419.02L905.311 409.59C905.311 409.59 905.761 407.46 904.891 407Z" fill="white"/>
</g>
<path d="M925.911 419.13C925.816 419.114 925.725 419.084 925.641 419.04L924.861 418.73L922.001 417.54C919.621 416.54 916.361 415.06 912.781 413.37C909.201 411.68 906.011 410.09 903.721 408.9L901.001 407.48L900.271 407.08L900.021 406.92L900.29 407.04L901.04 407.4L903.781 408.77C906.101 409.92 909.3 411.5 912.87 413.19C916.44 414.88 919.691 416.35 922.061 417.4L924.851 418.65L925.611 419L925.911 419.13Z" fill="#263238"/>
<path d="M905.2 409.84C905.295 409.326 905.332 408.802 905.31 408.28C905.216 407.763 905.069 407.257 904.87 406.77C905.254 407.175 905.481 407.703 905.51 408.26C905.608 408.807 905.498 409.371 905.2 409.84Z" fill="#263238"/>
<path d="M910.77 409.69C910.71 409.69 910.62 409.33 910.57 408.88C910.52 408.43 910.51 408.05 910.57 408.04C910.693 408.293 910.761 408.569 910.77 408.85C910.83 409.31 910.83 409.68 910.77 409.69Z" fill="#263238"/>
<path d="M912.31 409.62C912.26 409.62 912.1 409.37 911.94 409.01C911.78 408.65 911.71 408.34 911.77 408.32C911.83 408.3 911.98 408.57 912.13 408.93C912.28 409.29 912.36 409.6 912.31 409.62Z" fill="#263238"/>
<path d="M913.77 408.55C913.473 408.524 913.186 408.431 912.93 408.28C912.645 408.186 912.386 408.028 912.17 407.82C912.467 407.846 912.754 407.939 913.01 408.09C913.46 408.3 913.8 408.5 913.77 408.55Z" fill="#263238"/>
<path d="M914.52 407.67C914.176 407.682 913.833 407.624 913.512 407.501C913.191 407.377 912.898 407.19 912.65 406.95C913.273 407.192 913.896 407.432 914.52 407.67Z" fill="#263238"/>
<path d="M910.881 408.12C910.522 408.024 910.183 407.865 909.881 407.65C909.546 407.439 909.232 407.198 908.941 406.93C908.766 406.767 908.605 406.59 908.461 406.4C908.378 406.277 908.346 406.126 908.37 405.98C908.386 405.899 908.426 405.825 908.485 405.768C908.544 405.711 908.619 405.673 908.7 405.66C908.998 405.655 909.294 405.716 909.565 405.839C909.836 405.962 910.076 406.145 910.268 406.373C910.46 406.601 910.598 406.869 910.673 407.158C910.748 407.446 910.757 407.747 910.7 408.04C910.7 408.22 910.611 408.32 910.601 408.31C910.642 407.976 910.625 407.638 910.551 407.31C910.449 406.948 910.248 406.623 909.97 406.37C909.813 406.215 909.625 406.093 909.419 406.012C909.212 405.931 908.992 405.893 908.771 405.9C908.561 405.9 908.531 406.15 908.661 406.33C908.787 406.51 908.931 406.678 909.09 406.83C909.368 407.099 909.665 407.346 909.98 407.57C910.52 407.91 910.901 408.09 910.881 408.12Z" fill="#263238"/>
<path d="M910.61 408.05C910.582 407.787 910.654 407.523 910.81 407.31C910.967 407.07 911.176 406.869 911.42 406.72C911.572 406.614 911.748 406.549 911.931 406.529C912.115 406.51 912.3 406.538 912.47 406.61C912.56 406.679 912.619 406.78 912.635 406.892C912.652 407.004 912.625 407.118 912.56 407.21C912.463 407.352 912.337 407.471 912.19 407.56C911.958 407.718 911.706 407.846 911.44 407.94C911.207 408.039 910.954 408.084 910.7 408.07C910.7 408.07 910.97 407.99 911.39 407.8C911.633 407.694 911.865 407.564 912.08 407.41C912.31 407.27 912.58 406.94 912.35 406.78C912.211 406.736 912.063 406.723 911.918 406.742C911.773 406.761 911.634 406.811 911.51 406.89C911.288 407.019 911.091 407.189 910.93 407.39C910.799 407.597 910.691 407.818 910.61 408.05Z" fill="#263238"/>
<path d="M927.57 414.82C927.57 414.82 927.16 414.57 926.43 414.33C925.486 414.004 924.47 413.952 923.498 414.181C922.527 414.409 921.639 414.908 920.94 415.62C920.39 416.16 920.16 416.62 920.13 416.57C920.162 416.459 920.213 416.354 920.28 416.26C920.438 415.996 920.622 415.748 920.83 415.52C921.528 414.755 922.441 414.218 923.449 413.981C924.457 413.744 925.514 413.817 926.48 414.19C926.767 414.3 927.042 414.441 927.3 414.61C927.49 414.73 927.58 414.81 927.57 414.82Z" fill="#263238"/>
<path d="M929 407.74C928.613 408.829 928.162 409.894 927.65 410.93C927.2 411.992 926.69 413.027 926.12 414.03C926.507 412.941 926.958 411.876 927.47 410.84C927.915 409.776 928.426 408.74 929 407.74Z" fill="#263238"/>
<path d="M918.85 414.25C918.043 414.076 917.263 413.797 916.53 413.42C915.765 413.101 915.043 412.688 914.38 412.19C914.38 412.14 915.38 412.67 916.61 413.24C917.84 413.81 918.87 414.2 918.85 414.25Z" fill="#263238"/>
<path d="M921.841 415.66C921.841 415.72 921.661 415.83 921.451 416.01C921.241 416.19 921.091 416.37 921.041 416.34C920.991 416.31 921.041 416.06 921.321 415.86C921.601 415.66 921.831 415.61 921.841 415.66Z" fill="#263238"/>
<path d="M923.63 414.79C923.63 414.85 923.47 414.96 923.24 415.04C923.01 415.12 922.8 415.16 922.78 415.1C922.76 415.04 922.94 414.94 923.17 414.85C923.4 414.76 923.61 414.74 923.63 414.79Z" fill="#263238"/>
<path d="M925.54 414.92C925.54 414.92 925.3 414.86 925.04 414.84C924.78 414.82 924.56 414.84 924.54 414.84C924.52 414.84 924.74 414.64 925.07 414.68C925.4 414.72 925.58 414.88 925.54 414.92Z" fill="#263238"/>
<path d="M926.83 415.16C926.83 415.16 926.7 415.25 926.55 415.24C926.4 415.23 926.28 415.17 926.29 415.12C926.3 415.07 926.42 415.02 926.56 415.03C926.7 415.04 926.83 415.1 926.83 415.16Z" fill="#263238"/>
<path d="M1023 290.66L1019.42 272.66C1016.82 258 996.22 257 996.22 257L980 256.73C980 256.73 968 255.12 960.61 263.46C952.96 272.09 943.55 282.3 943.55 282.3L950.73 300.37L967.73 286.37C966.308 288.864 965.525 291.67 965.45 294.54C965.45 299.33 970.45 301.54 970.45 301.54L972 316.07L967 339.6L1019.81 337.48C1018.92 329.588 1016.25 322.001 1012 315.29L1013 290.66H1023Z" fill="#B0BEC5"/>
<path d="M1000.37 270.53C1000.51 270.9 1000.61 271.286 1000.65 271.68C1000.82 272.53 1001.02 273.58 1001.27 274.83C1001.81 277.61 1002.51 281.23 1003.27 285.23C1004.03 289.23 1004.71 292.99 1005.13 295.67C1005.35 297.01 1005.5 298.1 1005.59 298.85C1005.66 299.239 1005.69 299.635 1005.66 300.03C1005.53 299.658 1005.44 299.272 1005.39 298.88C1005.22 298.03 1005.01 296.98 1004.77 295.73C1004.23 292.95 1003.53 289.33 1002.77 285.33C1002.01 281.33 1001.33 277.58 1000.91 274.89C1000.69 273.55 1000.54 272.47 1000.45 271.71C1000.38 271.32 1000.36 270.925 1000.37 270.53Z" fill="#263238"/>
<path d="M1023.31 289.72C1020.06 289.998 1016.81 290.098 1013.55 290.02C1010.29 290.116 1007.04 290.04 1003.79 289.79C1007.04 289.519 1010.29 289.422 1013.55 289.5C1016.8 289.404 1020.06 289.477 1023.31 289.72Z" fill="#263238"/>
<path d="M1025.32 306C1024.32 297.38 1022.89 290 1022.89 290H1004.19C1004.19 290 1006.51 301 1006 303.5C1005.54 305.71 969.31 307.17 959.87 307.32C959.3 306.9 958.49 307.61 957.76 306.97C957.116 306.398 956.571 305.722 956.15 304.97C955.593 304.058 955.159 303.076 954.86 302.05C954.825 301.858 954.734 301.68 954.599 301.539C954.464 301.398 954.29 301.3 954.1 301.256C953.909 301.213 953.71 301.226 953.527 301.294C953.344 301.362 953.185 301.483 953.07 301.64C952.69 302.45 953.12 305.14 954.91 307.74C956.7 310.34 952 308.99 950.28 308.53C948.56 308.07 943.16 306.9 942.61 307.33C941.79 307.96 942.3 308.97 944.03 309.39C945.76 309.81 950.87 311.39 950.59 312.39C950.31 313.39 941.59 310.82 941.59 310.82C941.59 310.82 939.81 309.99 939.45 311.04C938.81 312.94 948.28 314.86 949.19 315.04C949.82 315.16 949.55 316.17 948.88 316.04C948.21 315.91 940.22 313.37 939.55 315.3C939.03 316.78 947.33 316.96 948.7 318.42C950.07 319.88 942.42 317.63 941.98 319.06C941.82 319.6 944.98 319.84 949.58 320.49C954.282 320.939 959.008 321.106 963.73 320.99C974.34 321.57 1011.86 322.35 1019.87 321.78C1029.19 321.07 1025.68 309 1025.32 306Z" fill="#FFBE9D"/>
<path d="M965.9 291.17C966.046 290.347 966.26 289.537 966.54 288.75C966.76 288 967.03 287.12 967.37 286.15C967.54 285.67 967.73 285.15 967.94 284.64C968.06 284.36 968.21 284.12 968.28 283.89C968.36 283.638 968.394 283.374 968.38 283.11C968.331 282.552 968.248 281.998 968.13 281.45C968.03 280.91 967.93 280.39 967.83 279.88C967.67 278.88 967.51 278.02 967.37 277.2C967.185 276.383 967.084 275.548 967.07 274.71C967.377 275.491 967.598 276.302 967.73 277.13C967.91 277.94 968.1 278.83 968.3 279.78L968.63 281.36C968.767 281.932 968.857 282.514 968.9 283.1C968.917 283.422 968.873 283.744 968.77 284.05C968.666 284.32 968.545 284.584 968.41 284.84C968.2 285.34 968 285.84 967.82 286.32C967.49 287.23 967.17 288.08 966.89 288.86C966.658 289.668 966.325 290.444 965.9 291.17Z" fill="#263238"/>
<path d="M987.7 223C989.14 224.86 990.7 227 990.39 229.33C990.14 231.33 988.51 233.18 988.78 235.22C989.1 237.57 991.78 239.11 991.96 241.48C992.07 243.48 990.38 244.96 989.19 246.48C988.317 247.604 987.674 248.889 987.298 250.262C986.922 251.635 986.821 253.068 987 254.48C987.197 255.884 987.711 257.225 988.503 258.402C989.294 259.578 990.343 260.559 991.57 261.27C992.814 261.958 994.214 262.312 995.636 262.298C997.057 262.284 998.45 261.902 999.68 261.19C1001.85 259.678 1003.43 257.463 1004.15 254.92C1005.27 251.7 1005.57 247.92 1003.66 245.08C1002.88 243.94 1001.75 242.96 1001.5 241.6C1001.18 239.88 1002.4 238.26 1002.59 236.52C1002.85 234.19 1001.24 232.06 999.46 230.52C997.68 228.98 995.58 227.76 994.25 225.83" fill="#263238"/>
<g opacity="0.3">
<path d="M1001 275.4C1001.65 285.4 1002 294.65 1002.24 304.68C1003.57 304.622 1004.87 304.215 1006 303.5C1006.51 299.22 1003.27 286.19 1001 275.4Z" fill="black"/>
</g>
<path d="M976.62 270.79C976.475 270.027 976.555 269.238 976.85 268.52C977.19 267.3 977.72 266.41 977.85 266.47C977.807 267.223 977.638 267.963 977.35 268.66C977.221 269.404 976.975 270.123 976.62 270.79Z" fill="#FAFAFA"/>
<path d="M966 270.76C965.92 270.88 965.21 270.53 964.52 269.87C963.83 269.21 963.43 268.52 963.52 268.44C963.61 268.36 964.19 268.87 964.85 269.49C965.51 270.11 966.07 270.64 966 270.76Z" fill="#FAFAFA"/>
<path d="M955.85 279.06C955.85 279.06 955.76 278.97 955.7 278.79H955.93C956.086 279.606 956.086 280.444 955.93 281.26C955.87 282.193 955.52 283.085 954.93 283.81C955.047 282.919 955.224 282.037 955.46 281.17C955.64 280.17 955.68 279.23 955.74 278.8H955.97C955.91 279 955.89 279.05 955.85 279.06Z" fill="#FAFAFA"/>
<path d="M955.4 289.44C954.636 289.408 953.889 289.21 953.21 288.86C952.05 288.41 951.15 287.94 951.21 287.8C951.977 287.83 952.728 288.028 953.41 288.38C954.55 288.83 955.45 289.3 955.4 289.44Z" fill="#FAFAFA"/>
<path d="M964 283.69C963.86 283.69 963.88 282.79 964.21 281.76C964.54 280.73 965 279.99 965.13 280.05C965.26 280.11 965.01 280.92 964.7 281.91C964.39 282.9 964.1 283.71 964 283.69Z" fill="#FAFAFA"/>
<path d="M973 260.93C973 261.07 972.25 261.22 971.31 261.27C970.37 261.32 969.61 261.27 969.6 261.09C969.59 260.91 970.35 260.79 971.29 260.75C972.23 260.71 973 260.78 973 260.93Z" fill="#FAFAFA"/>
<path d="M974.83 280.46C974.74 280.56 973.93 279.96 973.39 278.86C972.986 278.232 972.843 277.472 972.99 276.74C973.14 276.74 973.35 277.63 973.85 278.63C974.35 279.63 974.94 280.35 974.83 280.46Z" fill="#FAFAFA"/>
<path d="M992.591 276.27C992.691 276.37 992.061 277.17 991.111 277.99C990.161 278.81 989.271 279.31 989.191 279.19C989.111 279.07 989.841 278.39 990.771 277.59C991.701 276.79 992.491 276.17 992.591 276.27Z" fill="#FAFAFA"/>
<path d="M983.81 273.51C983.89 273.63 983.34 274.18 982.57 274.75C981.8 275.32 981.1 275.7 981.02 275.58C980.94 275.46 981.49 274.91 982.26 274.34C983.03 273.77 983.72 273.4 983.81 273.51Z" fill="#FAFAFA"/>
<path d="M988.12 266.33C987.308 266.16 986.566 265.748 985.99 265.15C984.99 264.26 984.38 263.3 984.5 263.22C984.62 263.14 985.34 263.91 986.33 264.75C987.32 265.59 988.19 266.2 988.12 266.33Z" fill="#FAFAFA"/>
<path d="M998.23 263.53C998.31 263.64 997.75 264.22 996.96 264.81C996.17 265.4 995.46 265.81 995.37 265.69C995.28 265.57 995.85 265 996.64 264.4C997.43 263.8 998.14 263.41 998.23 263.53Z" fill="#FAFAFA"/>
<path d="M1006.67 267.53C1006.66 266.807 1006.77 266.087 1006.99 265.4C1007.22 264.25 1007.37 263.3 1007.52 263.31C1007.74 264.023 1007.74 264.787 1007.52 265.5C1007.27 266.7 1006.8 267.58 1006.67 267.53Z" fill="#FAFAFA"/>
<path d="M1008.16 277.16C1008.06 277.26 1007.16 276.59 1006.16 275.65C1005.16 274.71 1004.39 273.87 1004.49 273.77C1004.59 273.67 1005.49 274.33 1006.49 275.27C1007.49 276.21 1008.26 277.05 1008.16 277.16Z" fill="#FAFAFA"/>
<path d="M1015 273.11C1014.87 273.05 1015.13 272.11 1015.58 271.11C1016.03 270.11 1016.51 269.23 1016.64 269.29C1016.6 269.993 1016.41 270.677 1016.06 271.29C1015.6 272.35 1015.12 273.17 1015 273.11Z" fill="#FAFAFA"/>
<path d="M1015.35 284.68C1015.52 283.843 1015.86 283.05 1016.35 282.35C1016.69 281.573 1017.17 280.87 1017.78 280.28C1017.61 281.114 1017.27 281.904 1016.78 282.6C1016.45 283.381 1015.96 284.088 1015.35 284.68Z" fill="#FAFAFA"/>
<path d="M1008.61 286.45C1008.49 286.54 1007.81 285.82 1007.07 284.84C1006.33 283.86 1005.84 283.01 1005.95 282.92C1006.06 282.83 1006.76 283.55 1007.49 284.53C1008.22 285.51 1008.72 286.36 1008.61 286.45Z" fill="#FAFAFA"/>
<path d="M995.891 291.4C996.132 290.352 996.599 289.369 997.261 288.52C997.783 287.583 998.507 286.773 999.381 286.15C998.913 287.092 998.35 287.983 997.701 288.81C997.187 289.732 996.58 290.6 995.891 291.4Z" fill="#FAFAFA"/>
<path d="M986.751 290.48C986.139 289.806 985.661 289.022 985.341 288.17C984.869 287.39 984.546 286.528 984.391 285.63C985.478 287.082 986.279 288.728 986.751 290.48Z" fill="#FAFAFA"/>
<path d="M975.24 287.8C974.667 288.636 973.957 289.369 973.14 289.97C972.438 290.701 971.616 291.306 970.71 291.76C970.61 291.65 971.55 290.68 972.8 289.58C973.505 288.85 974.33 288.248 975.24 287.8Z" fill="#FAFAFA"/>
<path d="M979.61 300.3C979.49 300.39 978.67 299.46 977.61 298.38C976.55 297.3 975.61 296.46 975.7 296.38C976.586 296.727 977.375 297.283 978 298C978.718 298.623 979.27 299.413 979.61 300.3Z" fill="#FAFAFA"/>
<path d="M987.67 300.68C987.727 299.764 988.035 298.882 988.56 298.13C989.31 296.83 990.22 295.99 990.32 296.13C989.961 296.931 989.519 297.692 989 298.4C988.636 299.204 988.191 299.968 987.67 300.68Z" fill="#FAFAFA"/>
<path d="M999 302C998.084 301.568 997.249 300.983 996.53 300.27C995.7 299.684 994.973 298.965 994.38 298.14C995.299 298.571 996.138 299.156 996.86 299.87C997.687 300.456 998.41 301.176 999 302Z" fill="#FAFAFA"/>
<path d="M998 272.22C997.216 272.094 996.484 271.747 995.89 271.22C994.83 270.45 994.18 269.6 994.28 269.5C994.38 269.4 995.18 270.06 996.2 270.8C997.22 271.54 998 272.09 998 272.22Z" fill="#FAFAFA"/>
<path d="M981.63 323.47C981.69 323.61 980.88 324.04 979.98 324.71C979.08 325.38 978.41 326.01 978.3 325.92C978.19 325.83 978.7 325 979.67 324.29C980.64 323.58 981.59 323.34 981.63 323.47Z" fill="#FAFAFA"/>
<path d="M993.73 328.41C992.858 327.059 992.295 325.533 992.08 323.94C992.948 325.293 993.511 326.818 993.73 328.41Z" fill="#FAFAFA"/>
<path d="M1005.93 324.09C1006.04 324.19 1005.41 325.01 1004.54 325.92C1003.67 326.83 1002.88 327.49 1002.78 327.39C1002.68 327.29 1003.3 326.47 1004.17 325.56C1005.04 324.65 1005.83 324 1005.93 324.09Z" fill="#FAFAFA"/>
<path d="M1015 330.67C1014.89 330.78 1014.08 330.14 1012.88 329.91C1011.68 329.68 1010.69 329.91 1010.64 329.78C1010.98 329.538 1011.36 329.377 1011.77 329.311C1012.18 329.245 1012.6 329.276 1012.99 329.4C1014.31 329.67 1015.07 330.59 1015 330.67Z" fill="#FAFAFA"/>
<path d="M1019.93 335.12C1019.93 335.12 950.87 320.65 944.18 323.82C937.49 326.99 906.66 403.2 906.66 403.2L931.49 413.88L958.2 349.12C958.2 349.12 1006.55 366.78 1015 365C1023.45 363.22 1019.93 335.12 1019.93 335.12Z" fill="#455A64"/>
<path d="M989.06 339.18C988.01 339.53 948.06 355.96 945.24 361.23C942.42 366.5 949.34 454.17 949.34 454.17H972.06L970.66 376.26L1015 365L989.06 339.18Z" fill="#455A64"/>
<path d="M1015.23 365.21C1015.01 365.202 1014.79 365.175 1014.58 365.13L1012.72 364.8C1011.11 364.5 1008.78 364.04 1005.91 363.43C1000.18 362.22 992.28 360.43 983.68 357.92C979.38 356.68 975.32 355.38 971.68 354.12C968.04 352.86 964.75 351.6 962.06 350.45C960.7 349.9 959.49 349.35 958.43 348.87C957.37 348.39 956.43 347.98 955.72 347.6L954.04 346.75C953.835 346.661 953.641 346.55 953.46 346.42C953.673 346.483 953.88 346.564 954.08 346.66L955.81 347.42C956.55 347.76 957.47 348.16 958.54 348.61C959.61 349.06 960.83 349.61 962.19 350.11C964.9 351.22 968.19 352.39 971.84 353.67C975.49 354.95 979.56 356.18 983.84 357.42C992.43 359.89 1000.3 361.77 1006.01 363.07L1012.78 364.6L1014.62 365.02C1014.83 365.062 1015.03 365.126 1015.23 365.21Z" fill="#263238"/>
<path d="M945.25 381.37C945.138 380.941 945.068 380.502 945.04 380.06C944.94 379.11 944.81 377.9 944.66 376.46C944.51 375.02 944.35 373.11 944.17 371.13C943.864 368.937 943.864 366.713 944.17 364.52C944.613 362.304 945.776 360.296 947.48 358.81C948.835 357.603 950.37 356.614 952.03 355.88C953.13 355.379 954.254 354.935 955.4 354.55C955.813 354.384 956.242 354.26 956.68 354.18C956.68 354.27 954.92 354.9 952.19 356.18C950.59 356.933 949.113 357.924 947.81 359.12C946.206 360.556 945.108 362.471 944.68 364.58C944.4 366.728 944.4 368.902 944.68 371.05C944.83 373.05 944.96 374.84 945.07 376.39C945.18 377.94 945.23 379.05 945.28 380C945.32 380.456 945.31 380.916 945.25 381.37Z" fill="#263238"/>
<path d="M965.18 373.84C967.099 374.307 968.92 375.11 970.56 376.21C968.642 375.738 966.822 374.936 965.18 373.84Z" fill="#263238"/>
<path d="M967.19 371.44C967.838 372.261 968.442 373.116 969 374C970 375.37 971.07 376.32 971 376.44C970.022 375.965 969.194 375.228 968.61 374.31C967.875 373.507 967.382 372.512 967.19 371.44Z" fill="#263238"/>
<path d="M975.91 375C975.91 375 975.84 375.19 975.56 375.36C975.154 375.575 974.699 375.682 974.24 375.67C973.609 375.648 972.978 375.665 972.35 375.72C972.013 375.77 971.708 375.947 971.498 376.215C971.287 376.483 971.188 376.821 971.22 377.16C971.297 379.188 971.203 381.218 970.94 383.23C970.683 381.207 970.603 379.166 970.7 377.13C970.705 376.666 970.855 376.214 971.13 375.84C971.424 375.508 971.83 375.295 972.27 375.24C972.937 375.204 973.606 375.224 974.27 375.3C974.833 375.342 975.398 375.238 975.91 375Z" fill="#263238"/>
<path opacity="0.3" d="M970.46 323.37L1017.53 327.15L1015.52 321.88L970.92 321.24L970.46 323.37Z" fill="black"/>
<path d="M1097.86 313.04H820.37V320.44H835.21L827.56 461.18L831.78 461.41L839.45 320.44H1082.73L1089.25 461.3H1093.49L1086.96 320.44H1097.86V313.04Z" fill="#263238"/>
<path d="M901.3 269.28L916.69 314.24H986.37L985.85 311.93L957.68 311.05L944.7 269.25L901.3 269.28Z" fill="#263238"/>
<path d="M932.18 290.39C932.64 292.24 931.85 294.04 930.42 294.39C928.99 294.74 927.42 293.59 926.99 291.74C926.56 289.89 927.32 288.1 928.75 287.74C930.18 287.38 931.72 288.55 932.18 290.39Z" fill="white"/>
<circle cx="120.5" cy="642.5" r="168" stroke="#2F7773" stroke-width="25" stroke-dasharray="50 50"/>
</g>
<defs>
<linearGradient id="paint0_linear_617_760" x1="-1.00002" y1="248.689" x2="1439" y2="248.689" gradientUnits="userSpaceOnUse">
<stop stop-color="#0F5256"/>
<stop offset="1" stop-color="#272796" stop-opacity="0.26"/>
</linearGradient>
<clipPath id="clip0_617_760">
<rect width="1439" height="589" fill="white"/>
</clipPath>
</defs>
</svg>
