<svg xmlns="http://www.w3.org/2000/svg" viewBox="0 0 500 500"><g id="freepik--Floor--inject-1--inject-200"><path d="M89.89,428.32c88.43,42.85,231.8,42.85,320.22,0s88.43-112.33,0-155.18-231.8-42.85-320.22,0S1.46,385.47,89.89,428.32Z" style="fill:#f5f5f5"></path></g><g id="freepik--Cloud--inject-1--inject-200"><path d="M408.15,90.82l-2.57,1V86.16c0-4.48-3.57-5.55-7.45-3.31h0a15.52,15.52,0,0,0-7,12.16v.82a3.76,3.76,0,0,0-3.26.5h0a11.17,11.17,0,0,0-5.05,8.75v.37l-3.57,2.07a7.35,7.35,0,0,0-3.33,5.76c0,2.12,1.49,3,3.33,1.92l28.92-16.7a7.36,7.36,0,0,0,3.32-5.76C411.47,90.62,410,89.76,408.15,90.82Z" style="fill:#f0f0f0"></path></g><g id="freepik--speech-bubbles--inject-1--inject-200"><path d="M109.39,165l-2.9-5.46,2.34-6.74v-4.13l-7.15,4.13V157l3.07,5.32a.4.4,0,0,0,.21.18h0Z" style="fill:#BA68C8"></path><path d="M109.39,165l-2.9-5.46,2.34-6.74v-4.13l-7.15,4.13V157l3.07,5.32a.4.4,0,0,0,.21.18h0Z" style="opacity:0.1"></path><path d="M106.16,159.55l3.07,5.33a.46.46,0,0,0,.83-.08l3.25-9.37V151.3l-7.15,4.13Z" style="fill:#BA68C8"></path><path d="M91.53,137.65l24.33-14.06a4.74,4.74,0,0,1,4.28,0l1.75,1a4.76,4.76,0,0,1,2.14,3.72v18.45a4.73,4.73,0,0,1-2.14,3.71L97.56,164.54a4.77,4.77,0,0,1-4.29,0l-1.74-1a4.71,4.71,0,0,1-2.15-3.71V141.36A4.74,4.74,0,0,1,91.53,137.65Z" style="fill:#BA68C8"></path><path d="M91.53,137.65l24.33-14.06a4.74,4.74,0,0,1,4.28,0l1.75,1a4.76,4.76,0,0,1,2.14,3.72v18.45a4.73,4.73,0,0,1-2.14,3.71L97.56,164.54a4.77,4.77,0,0,1-4.29,0l-1.74-1a4.71,4.71,0,0,1-2.15-3.71V141.36A4.74,4.74,0,0,1,91.53,137.65Z" style="fill:#fff;opacity:0.5"></path><path d="M124,128.32c0-1.37-1-1.93-2.14-1.24l-24.33,14a4.75,4.75,0,0,0-2.15,3.72V163.3c0,1.37,1,1.92,2.15,1.24l24.33-14.06a4.73,4.73,0,0,0,2.14-3.71Z" style="fill:#BA68C8"></path><g id="freepik--g4780--inject-1--inject-200"><g id="freepik--g15--inject-1--inject-200"><path id="freepik--path17-6--inject-1--inject-200" d="M115.5,147.7a16.21,16.21,0,0,0-1.57-.56c-1.05-.36-2-.07-2.81,1.41a1.67,1.67,0,0,1-1.7,1,4.62,4.62,0,0,1-4-2.43,1.77,1.77,0,0,1,.48-2.26,2.29,2.29,0,0,0,.85-1.62c0-.84-2.12-2.94-2.94-2.94a1.78,1.78,0,0,0-1,.37c-1.92,1.34-2.72,3.21-2,4.81,2.28,4.75,6.28,7.18,11.79,7.55a4.63,4.63,0,0,0,.84-.07,6.34,6.34,0,0,0,3.15-3.54c.41-1.3-.46-1.44-1.14-1.75Z" style="fill:#fff"></path><path id="freepik--path19-1--inject-1--inject-200" d="M109.32,138.68c4-.84,5.89.4,6.4,4.27,0,.35-.09,1,.44.79s.43-.7.43-1.08c0-3.84-3.28-6.17-7.15-4.89-.29.15-.9.12-.94.79,0,.45.49.19.82.12Z" style="fill:#fff"></path><path id="freepik--path21-2--inject-1--inject-200" d="M110.11,139.51c-.39.09-.9.1-1,.67s.48.33.84.28c2.49-.35,3.36.24,3.77,2.56.06.34-.06.94.55.63.45-.24.29-.66.33-1,0-2.38-2-3.8-4.5-3.19Z" style="fill:#fff"></path><path id="freepik--path23--inject-1--inject-200" d="M110.34,141.36a.89.89,0,0,0-.61.54c-.14.46.16.45.46.39,1-.21,1.56.2,1.66,1.18,0,.26.21.42.47.3a.78.78,0,0,0,.4-.83,1.78,1.78,0,0,0-2.38-1.58Z" style="fill:#fff"></path></g></g><path d="M89.38,159.82a4.71,4.71,0,0,0,2.15,3.71l1.74,1a4.78,4.78,0,0,0,3.92.17c-1,.38-1.78-.19-1.78-1.41V144.85a4.39,4.39,0,0,1,.63-2.12l-6-3.48a4.36,4.36,0,0,0-.63,2.11Z" style="fill:#BA68C8"></path><path d="M89.38,159.82a4.71,4.71,0,0,0,2.15,3.71l1.74,1a4.78,4.78,0,0,0,3.92.17c-1,.38-1.78-.19-1.78-1.41V144.85a4.39,4.39,0,0,1,.63-2.12l-6-3.48a4.36,4.36,0,0,0-.63,2.11Z" style="opacity:0.1"></path><path d="M411.81,170.15l-2.91-5.46,2.34-6.74v-4.13L404.09,158v4.12l3.07,5.33a.44.44,0,0,0,.21.18h0Z" style="fill:#BA68C8"></path><path d="M411.81,170.15l-2.91-5.46,2.34-6.74v-4.13L404.09,158v4.12l3.07,5.33a.44.44,0,0,0,.21.18h0Z" style="opacity:0.1"></path><path d="M393.94,145.54l24.33-14a4.7,4.7,0,0,1,4.29,0l1.74,1a4.75,4.75,0,0,1,2.15,3.72v15.67a4.71,4.71,0,0,1-2.15,3.71L400,169.65a4.77,4.77,0,0,1-4.29,0l-1.74-1a4.75,4.75,0,0,1-2.14-3.71V149.25A4.76,4.76,0,0,1,393.94,145.54Z" style="fill:#BA68C8"></path><path d="M393.94,145.54l24.33-14a4.7,4.7,0,0,1,4.29,0l1.74,1a4.75,4.75,0,0,1,2.15,3.72v15.67a4.71,4.71,0,0,1-2.15,3.71L400,169.65a4.77,4.77,0,0,1-4.29,0l-1.74-1a4.75,4.75,0,0,1-2.14-3.71V149.25A4.76,4.76,0,0,1,393.94,145.54Z" style="fill:#fff;opacity:0.5"></path><path d="M400,169.65c-1.18.68-2.14.13-2.14-1.24V152.74A4.76,4.76,0,0,1,400,149L424.3,135c1.19-.69,2.15-.13,2.15,1.24v15.67a4.71,4.71,0,0,1-2.15,3.71" style="fill:#BA68C8"></path><path d="M391.8,164.93a4.75,4.75,0,0,0,2.14,3.71l1.74,1a4.8,4.8,0,0,0,3.93.17c-1,.38-1.78-.19-1.78-1.41V152.74a4.39,4.39,0,0,1,.63-2.12l-6-3.48a4.45,4.45,0,0,0-.62,2.11Z" style="fill:#BA68C8"></path><path d="M391.8,164.93a4.75,4.75,0,0,0,2.14,3.71l1.74,1a4.8,4.8,0,0,0,3.93.17c-1,.38-1.78-.19-1.78-1.41V152.74a4.39,4.39,0,0,1,.63-2.12l-6-3.48a4.45,4.45,0,0,0-.62,2.11Z" style="opacity:0.1"></path><path d="M408.57,164.66l3.08,5.33a.46.46,0,0,0,.83-.08l3.24-9.37v-4.13l-7.15,4.13Z" style="fill:#BA68C8"></path><path d="M405.53,153.84a4.46,4.46,0,0,0-2,3.49c0,1.29.9,1.81,2,1.17a4.46,4.46,0,0,0,2-3.5C407.55,153.72,406.65,153.2,405.53,153.84Z" style="fill:#fff"></path><path d="M413,149.54a4.44,4.44,0,0,0-2,3.49c0,1.29.9,1.81,2,1.17a4.48,4.48,0,0,0,2-3.5C415,149.42,414.08,148.9,413,149.54Z" style="fill:#fff"></path><path d="M420.4,145.24a4.47,4.47,0,0,0-2,3.49c0,1.29.91,1.81,2,1.17a4.49,4.49,0,0,0,2-3.5C422.42,145.12,421.51,144.6,420.4,145.24Z" style="fill:#fff"></path></g><g id="freepik--Icons--inject-1--inject-200"><path d="M152.15,117.25l17.16-9.91a5.87,5.87,0,0,1,5.32,0l2.17,1.26a5.86,5.86,0,0,1,2.66,4.61V133a5.88,5.88,0,0,1-2.66,4.61l-17.15,9.91a6,6,0,0,1-5.33,0l-2.17-1.26a5.86,5.86,0,0,1-2.66-4.61v-19.8A5.88,5.88,0,0,1,152.15,117.25Z" style="fill:#BA68C8"></path><path d="M152.15,117.25l17.16-9.91a5.87,5.87,0,0,1,5.32,0l2.17,1.26a5.86,5.86,0,0,1,2.66,4.61V133a5.88,5.88,0,0,1-2.66,4.61l-17.15,9.91a6,6,0,0,1-5.33,0l-2.17-1.26a5.86,5.86,0,0,1-2.66-4.61v-19.8A5.88,5.88,0,0,1,152.15,117.25Z" style="fill:#fff;opacity:0.5"></path><path d="M179.46,113.21c0-1.7-1.19-2.39-2.66-1.54l-17.15,9.9a5.91,5.91,0,0,0-2.67,4.61V146c0,1.7,1.2,2.38,2.67,1.54l17.15-9.91a5.88,5.88,0,0,0,2.66-4.61Z" style="fill:#BA68C8"></path><path d="M149.49,141.66a5.86,5.86,0,0,0,2.66,4.61l2.17,1.26a6,6,0,0,0,4.87.21c-1.25.47-2.21-.23-2.21-1.75V126.18a5.43,5.43,0,0,1,.78-2.62l-7.49-4.33a5.5,5.5,0,0,0-.78,2.63Z" style="fill:#BA68C8"></path><path d="M149.49,141.66a5.86,5.86,0,0,0,2.66,4.61l2.17,1.26a6,6,0,0,0,4.87.21c-1.25.47-2.21-.23-2.21-1.75V126.18a5.43,5.43,0,0,1,.78-2.62l-7.49-4.33a5.5,5.5,0,0,0-.78,2.63Z" style="opacity:0.1"></path><path d="M161,127.54l14.59-8.46c.39-.22.71,0,.71.41v9.9a1.59,1.59,0,0,1-.71,1.23L161,139.08c-.39.22-.71,0-.71-.41v-9.9A1.59,1.59,0,0,1,161,127.54Z" style="fill:#fff"></path><polygon points="160.25 127.95 168.97 130.78 176.26 118.67 169.21 131.8 160.25 127.95" style="fill:#BA68C8"></polygon><path d="M152.15,202.08l17.16-9.9a5.87,5.87,0,0,1,5.32,0l2.17,1.25a5.89,5.89,0,0,1,2.66,4.61v19.81a5.88,5.88,0,0,1-2.66,4.61l-17.15,9.9a5.89,5.89,0,0,1-5.33,0l-2.17-1.25a5.88,5.88,0,0,1-2.66-4.61V206.7A5.9,5.9,0,0,1,152.15,202.08Z" style="fill:#BA68C8"></path><path d="M152.15,202.08l17.16-9.9a5.87,5.87,0,0,1,5.32,0l2.17,1.25a5.89,5.89,0,0,1,2.66,4.61v19.81a5.88,5.88,0,0,1-2.66,4.61l-17.15,9.9a5.89,5.89,0,0,1-5.33,0l-2.17-1.25a5.88,5.88,0,0,1-2.66-4.61V206.7A5.9,5.9,0,0,1,152.15,202.08Z" style="fill:#fff;opacity:0.5"></path><path d="M179.46,198c0-1.69-1.19-2.38-2.66-1.53l-17.15,9.9A5.89,5.89,0,0,0,157,211v19.81c0,1.69,1.2,2.38,2.67,1.53l17.15-9.9a5.88,5.88,0,0,0,2.66-4.61Z" style="fill:#BA68C8"></path><path d="M149.49,226.5a5.88,5.88,0,0,0,2.66,4.61l2.17,1.25a5.94,5.94,0,0,0,4.87.22c-1.25.47-2.21-.24-2.21-1.75V211a5.43,5.43,0,0,1,.78-2.62l-7.49-4.33a5.5,5.5,0,0,0-.78,2.63Z" style="fill:#BA68C8"></path><path d="M149.49,226.5a5.88,5.88,0,0,0,2.66,4.61l2.17,1.25a5.94,5.94,0,0,0,4.87.22c-1.25.47-2.21-.24-2.21-1.75V211a5.43,5.43,0,0,1,.78-2.62l-7.49-4.33a5.5,5.5,0,0,0-.78,2.63Z" style="opacity:0.1"></path><path d="M168.22,211.12a7.21,7.21,0,0,0-3,5.75c0,2.21,1.34,3.23,3,2.27a7.2,7.2,0,0,0,3-5.74C171.23,211.19,169.88,210.17,168.22,211.12Z" style="fill:#fff"></path><polygon points="162.94 212.14 164.19 211.42 164.19 212.05 162.94 212.76 162.94 212.14" style="fill:#fff"></polygon><path d="M174,206.6,171.64,208c-.45.25-.81,0-.81-.62s-.36-.87-.81-.61l-3.59,2.07a1.94,1.94,0,0,0-.82,1.55,1.92,1.92,0,0,1-.81,1.55l-2.36,1.37a1.93,1.93,0,0,0-.81,1.55v9c0,.6.36.88.81.62L174,217.78a1.94,1.94,0,0,0,.82-1.55v-9C174.82,206.62,174.45,206.34,174,206.6Zm-5.78,13.13c-1.9,1.1-3.45-.07-3.45-2.6a8.29,8.29,0,0,1,3.45-6.6c1.91-1.1,3.45.07,3.45,2.61S170.13,218.64,168.22,219.73Zm3.56-9.63c-.17.1-.31,0-.31-.23a.74.74,0,0,1,.31-.59c.17-.1.31,0,.31.23A.74.74,0,0,1,171.78,210.1Z" style="fill:#fff"></path><path d="M152.15,160.06l17.16-9.9a5.87,5.87,0,0,1,5.32,0l2.17,1.25a5.89,5.89,0,0,1,2.66,4.61v19.81a5.88,5.88,0,0,1-2.66,4.61l-17.15,9.9a5.89,5.89,0,0,1-5.33,0l-2.17-1.25a5.88,5.88,0,0,1-2.66-4.61V164.67A5.89,5.89,0,0,1,152.15,160.06Z" style="fill:#BA68C8"></path><path d="M152.15,160.06l17.16-9.9a5.87,5.87,0,0,1,5.32,0l2.17,1.25a5.89,5.89,0,0,1,2.66,4.61v19.81a5.88,5.88,0,0,1-2.66,4.61l-17.15,9.9a5.89,5.89,0,0,1-5.33,0l-2.17-1.25a5.88,5.88,0,0,1-2.66-4.61V164.67A5.89,5.89,0,0,1,152.15,160.06Z" style="fill:#fff;opacity:0.5"></path><path d="M179.46,156c0-1.69-1.19-2.38-2.66-1.53l-17.15,9.9A5.89,5.89,0,0,0,157,169v19.81c0,1.69,1.2,2.38,2.67,1.53l17.15-9.9a5.88,5.88,0,0,0,2.66-4.61Z" style="fill:#BA68C8"></path><path d="M149.49,184.48a5.88,5.88,0,0,0,2.66,4.61l2.17,1.25a5.94,5.94,0,0,0,4.87.22c-1.25.47-2.21-.24-2.21-1.75V169a5.43,5.43,0,0,1,.78-2.62l-7.49-4.33a5.49,5.49,0,0,0-.78,2.62Z" style="fill:#BA68C8"></path><path d="M149.49,184.48a5.88,5.88,0,0,0,2.66,4.61l2.17,1.25a5.94,5.94,0,0,0,4.87.22c-1.25.47-2.21-.24-2.21-1.75V169a5.43,5.43,0,0,1,.78-2.62l-7.49-4.33a5.49,5.49,0,0,0-.78,2.62Z" style="opacity:0.1"></path><path d="M164.13,166.44v12a4.57,4.57,0,0,0-3.26,4.26c0,1.4,1,2,2.2,1.27a5.94,5.94,0,0,0,2.66-4.09v-11l7-4v8.59a5.58,5.58,0,0,0-1.06.46,4,4,0,0,0-1.79,3.55c0,1.4,1,2,2.2,1.27a4.85,4.85,0,0,0,2.19-3.8h0V160.59Z" style="fill:#fff"></path><path d="M152.15,75.23l17.16-9.91a5.87,5.87,0,0,1,5.32,0l2.17,1.25a5.9,5.9,0,0,1,2.66,4.62V91a5.88,5.88,0,0,1-2.66,4.61l-17.15,9.91a6,6,0,0,1-5.33,0l-2.17-1.26a5.88,5.88,0,0,1-2.66-4.61V79.84A5.86,5.86,0,0,1,152.15,75.23Z" style="fill:#BA68C8"></path><path d="M152.15,75.23l17.16-9.91a5.87,5.87,0,0,1,5.32,0l2.17,1.25a5.9,5.9,0,0,1,2.66,4.62V91a5.88,5.88,0,0,1-2.66,4.61l-17.15,9.91a6,6,0,0,1-5.33,0l-2.17-1.26a5.88,5.88,0,0,1-2.66-4.61V79.84A5.86,5.86,0,0,1,152.15,75.23Z" style="fill:#fff;opacity:0.5"></path><path d="M179.46,71.19c0-1.7-1.19-2.39-2.66-1.54l-17.15,9.9A5.89,5.89,0,0,0,157,84.16V104c0,1.7,1.2,2.38,2.67,1.54L176.8,95.6A5.88,5.88,0,0,0,179.46,91Z" style="fill:#BA68C8"></path><path d="M149.49,99.64a5.88,5.88,0,0,0,2.66,4.61l2.17,1.26a6,6,0,0,0,4.87.21c-1.25.47-2.21-.23-2.21-1.75V84.16a5.43,5.43,0,0,1,.78-2.62l-7.49-4.33a5.5,5.5,0,0,0-.78,2.63Z" style="fill:#BA68C8"></path><path d="M149.49,99.64a5.88,5.88,0,0,0,2.66,4.61l2.17,1.26a6,6,0,0,0,4.87.21c-1.25.47-2.21-.23-2.21-1.75V84.16a5.43,5.43,0,0,1,.78-2.62l-7.49-4.33a5.5,5.5,0,0,0-.78,2.63Z" style="opacity:0.1"></path><path id="freepik--path17-6--inject-1--inject-200" d="M173.55,89.16a12,12,0,0,0-1.22-.66c-.83-.41-1.58,0-2.19,1.73-.34,1-.83,1.32-1.33,1.26a3.72,3.72,0,0,1-3.09-2.86,3,3,0,0,1,.38-2.72,3.43,3.43,0,0,0,.66-2c0-1-1.65-3.5-2.29-3.49a1.18,1.18,0,0,0-.8.46,6.13,6.13,0,0,0-1.52,5.79c1.77,5.67,4.52,7.59,8.81,8a2.6,2.6,0,0,0,.65-.09,5.56,5.56,0,0,0,2.82-3.35c.32-1.57-.35-1.73-.88-2.08Z" style="fill:#fff"></path></g><g id="freepik--Device--inject-1--inject-200"><ellipse cx="248.08" cy="386.16" rx="63.12" ry="30.08" style="fill:#ebebeb"></ellipse><path d="M321.15,131.78c4.75-4.9,11.5-8.33,16.15-4.77S342,139.34,339,143.69c-4.49,6.67-17.88,17.84-17.88,17.84Z" style="fill:#ffa8a7"></path><path d="M223.32,205.19s10-12.21,11.29-18.73V261H223.32Z" style="fill:#f28f8f"></path><path d="M290.6,326.18c.45-10.1,8.35-14,15.89-28,8.93-16.57,9.92-34.61,10.9-50.19H230.84v78.21Z" style="fill:#ffa8a7"></path><path d="M245.89,302.28l70.49-40.7c.45-4.67.73-9.24,1-13.61h-6.25l-72.77,37.18Z" style="fill:#f28f8f"></path><path d="M235.56,300.66l-1.91-1.1a6.23,6.23,0,0,1-2.81-4.87V127.38a6.2,6.2,0,0,1,2.81-4.86L310.82,78a6.23,6.23,0,0,1,5.61,0l1.91,1.11a6.2,6.2,0,0,1,2.81,4.86V251.24a6.23,6.23,0,0,1-2.81,4.87l-77.16,44.55A6.25,6.25,0,0,1,235.56,300.66Z" style="fill:#455a64"></path><path d="M242.13,130.65l-10.47-6a5.82,5.82,0,0,0-.82,2.77V294.69a6.23,6.23,0,0,0,2.81,4.87l1.91,1.1a6.25,6.25,0,0,0,5.62,0l.95-.55Z" style="fill:#263238"></path><path d="M238.37,131.72V299c0,1.79,1.25,2.51,2.81,1.62l77.16-44.55a6.23,6.23,0,0,0,2.81-4.87V83.93c0-1.79-1.26-2.52-2.81-1.62l-77.16,44.55A6.19,6.19,0,0,0,238.37,131.72Z" style="fill:#37474f"></path><path d="M244.54,142.3,315,101.63c1.33-.77,2.41-.15,2.41,1.39V236.5a5.34,5.34,0,0,1-2.41,4.17l-70.44,40.67c-1.33.77-2.41.14-2.41-1.39V146.47A5.32,5.32,0,0,1,244.54,142.3Z" style="fill:#fff"></path><path d="M279.76,108.93c1-.6,1.88-.11,1.88,1.09a4.14,4.14,0,0,1-1.88,3.25c-1,.6-1.88.12-1.88-1.08A4.16,4.16,0,0,1,279.76,108.93Z" style="fill:#263238"></path><path d="M274.33,118.33c3.82-2.12,10.64-6.17,14.41-8.39.64-.38,1.15-.12,1.15.58a2.5,2.5,0,0,1-1.16,1.93l-14.43,8.34c-.65.37-1.17.11-1.17-.59A2.39,2.39,0,0,1,274.33,118.33Z" style="fill:#263238"></path><path d="M270.68,120.44c.58-.34,1.06-.07,1.06.61a2.36,2.36,0,0,1-1.06,1.83c-.58.33-1.06.06-1.06-.61A2.33,2.33,0,0,1,270.68,120.44Z" style="fill:#263238"></path><path d="M279.76,265.35c2.08-1.2,3.76-.23,3.76,2.17a8.31,8.31,0,0,1-3.76,6.52c-2.08,1.2-3.76.22-3.76-2.17A8.31,8.31,0,0,1,279.76,265.35Z" style="fill:#263238"></path><path d="M237.28,180.62c2.41,1.12,5,8.41,4.2,15.46-.58,5-4.2,13.39-7.09,16.85s-7.2,9.65-7.31,14.06-.32,16.82,5.48,26.5,18.73,31.41,15.22,53.13H204.5a75.28,75.28,0,0,0-3.21-21.4c-2.87-8.79-5.77-19-6.1-27.53s6.13-40.93,8-45.78c2.37-6.17,9.12-10.21,16.37-17.27C227.78,186.62,231.21,177.8,237.28,180.62Z" style="fill:#ffa8a7"></path><path d="M214.52,395.35c18.37,10.6,48.15,10.6,66.52,0s18.36-27.8,0-38.41-48.15-10.6-66.52,0S196.15,384.74,214.52,395.35Z" style="fill:#ffa8a7"></path><path d="M200.74,376.14c0-5.88,2.71-37.53,3.18-45.28.58-9.62.58-19.06.58-24.24h86.55a249.53,249.53,0,0,0,0,30.42c1.07,14.92,3.76,28.24,3.76,39.07Z" style="fill:#ffa8a7"></path><path d="M229,199.09c.3-.51,6.1-7.93,7.53-10.87s1.23-6.26-2.76-7.95c-4.17,1.21-7.68,8-14.18,14.37A10.83,10.83,0,0,0,229,199.09Z" style="fill:#fff;opacity:0.2"></path><path d="M292.56,318.79h0c-3.15,5.28-11.55,17.43-34.16,19.87,0,0,19.48,2.57,32.22-11.24h0l0-1.24A17.65,17.65,0,0,1,292.56,318.79Z" style="fill:#f28f8f"></path><path d="M333.89,235c-2.36,4-12.74,11.47-12.74,11.47V223.25Z" style="fill:#f28f8f"></path><path d="M329.06,214.82c-5.73-.52-10,2.2-10,7.13v8.84a7.74,7.74,0,0,0,8.8,7.7l.23,0c7.53-1.22,7.43-8.1,7.52-11.71S334.16,215.29,329.06,214.82Z" style="fill:#ffa8a7"></path><path d="M334.58,177.71c-2.48,4.26-13.43,12.1-13.43,12.1V165.37Z" style="fill:#f28f8f"></path><path d="M329.49,156.48c-6-.55-9.21,2.1-10.56,7.52a26.59,26.59,0,0,0,0,9.32c.57,4,4.38,8.86,9.29,8.13l.24,0c7.94-1.29,8.84-5.56,8.84-12.44S334.87,157,329.49,156.48Z" style="fill:#ffa8a7"></path><path d="M335.11,199.79c-3.39,6-14,13-14,13V189.92Z" style="fill:#f28f8f"></path><path d="M329.36,180.69c-5.52-.51-8.42,1.91-9.65,6.86a24,24,0,0,0,0,8.52c.51,3.68,4,8.08,8.48,7.42l.22,0c7.25-1.18,8.07-5.07,8.07-11.36S334.27,181.13,329.36,180.69Z" style="fill:#ffa8a7"></path><path d="M221.09,193.08h0q-.74.78-1.53,1.56a10.83,10.83,0,0,0,9.41,4.45A13,13,0,0,0,221.09,193.08Z" style="fill:#f28f8f"></path><path d="M248.59,149.86v-1.18a.9.9,0,0,1,.4-.7l.11-.06c.23-.13.4,0,.4.23v1.18a.87.87,0,0,1-.4.7l-.11.06C248.77,150.22,248.59,150.12,248.59,149.86Z" style="fill:#BA68C8"></path><path d="M250.42,148.81v-2.05a.88.88,0,0,1,.4-.69l.11-.07c.22-.13.4,0,.4.23v2.05a.88.88,0,0,1-.4.69l-.11.07C250.6,149.17,250.42,149.06,250.42,148.81Z" style="fill:#BA68C8"></path><path d="M252.25,147.75v-2.91a.89.89,0,0,1,.4-.69l.11-.06c.22-.13.4,0,.4.23v2.9a.9.9,0,0,1-.4.7l-.11.06C252.43,148.11,252.25,148,252.25,147.75Z" style="fill:#BA68C8"></path><path d="M254.07,146.7v-5a.88.88,0,0,1,.41-.7l.11-.06c.22-.13.4,0,.4.23v5a.89.89,0,0,1-.4.69l-.12.07C254.25,147.05,254.07,147,254.07,146.7Z" style="fill:#BA68C8"></path><path d="M259,144.18s0-.06,0-.13v-.74l-2.05,1.18c-.12.07-.17,0-.17-.06v-.26a.61.61,0,0,1,0-.15.64.64,0,0,1,.07-.16L259,140a.76.76,0,0,1,.1-.15.57.57,0,0,1,.14-.11l.29-.16c.08,0,.15-.07.19,0s.05.06.05.14v2.58l.46-.27a.24.24,0,0,1,.18-.05s.05.07.05.15v.18a.36.36,0,0,1-.05.19.57.57,0,0,1-.18.16l-.46.26v.74a.42.42,0,0,1-.05.2.64.64,0,0,1-.19.16l-.35.2C259.12,144.18,259.06,144.2,259,144.18Zm.08-1.58v-1.83l-1.49,2.69Z" style="fill:#BA68C8"></path><path d="M261.45,142.33q-.6-.24-.6-1.35a3.7,3.7,0,0,1,.61-2,4.84,4.84,0,0,1,1.69-1.57A5.4,5.4,0,0,1,264,137a1.64,1.64,0,0,1,.64-.1s.06,0,.06,0a.23.23,0,0,1,0,.09l-.19.43a.17.17,0,0,1-.08.1l-.08,0a2.42,2.42,0,0,0-1.05.36,3.23,3.23,0,0,0-1.15,1.08,2.74,2.74,0,0,0-.42,1.51c0,.57.13.91.4,1a1.3,1.3,0,0,0,1.12-.23q.26-.15.51-.33a5.24,5.24,0,0,0,.4-.35v-1.2l-.86.49c-.08.05-.14.07-.18.05s-.05-.06-.05-.15v-.16a.43.43,0,0,1,.05-.21.71.71,0,0,1,.18-.15l1.37-.79c.09,0,.16-.07.2,0s.06.08.06.18v1.71a.34.34,0,0,1,0,.15.41.41,0,0,1-.08.14,6.1,6.1,0,0,1-1.62,1.31A2,2,0,0,1,261.45,142.33Z" style="fill:#BA68C8"></path><path d="M278.12,130.09v2.79c0,.21.15.3.33.19l2.43-1.39a.73.73,0,0,0,.32-.57v-2.8c0-.21-.14-.29-.32-.19l-2.43,1.4A.74.74,0,0,0,278.12,130.09Z" style="fill:#BA68C8"></path><path d="M280.6,127.73a.65.65,0,0,0-1-.6,1.82,1.82,0,0,0-.83,1.45v1h.41v-1a1.4,1.4,0,0,1,.63-1.09.31.31,0,0,1,.31,0c.07,0,.11.14.11.29v1h.41Z" style="fill:#BA68C8"></path><path d="M311.35,110.07a.73.73,0,0,0-.71.05l-5.37,3.1a1.81,1.81,0,0,0-.82,1.43v2.26a.7.7,0,0,0,.31.64.54.54,0,0,0,.28.08.92.92,0,0,0,.43-.13l5.37-3.1a1.8,1.8,0,0,0,.82-1.43v-2.26A.71.71,0,0,0,311.35,110.07Zm-6.4,7.14a.34.34,0,0,1-.11-.3v-2.26a1.43,1.43,0,0,1,.63-1.09l5.37-3.1a.55.55,0,0,1,.22-.07l.09,0a.34.34,0,0,1,.12.3V113a1.41,1.41,0,0,1-.63,1.09l-5.37,3.1A.33.33,0,0,1,305,117.21Z" style="fill:#BA68C8"></path><path d="M305.06,117s0-.05,0-.1v-2.26a1.19,1.19,0,0,1,.52-.89l5.37-3.1a.2.2,0,0,1,.09,0V113a1.21,1.21,0,0,1-.51.9l-5.37,3.1Z" style="fill:#BA68C8"></path><path d="M311.93,110.58c.2-.12.36.16.36.62v.42a1.43,1.43,0,0,1-.37,1.07l-.36.23v-2.13Z" style="fill:#BA68C8"></path><path d="M262.27,167.51a2.66,2.66,0,0,0,2.24-.38c1.75-1,3.17-2.95,3.28-6.36a9.67,9.67,0,0,1-3,3.17c-2.39,1.38-4.06,1.12-4.06-1.4s2-5.1,4.39-6.48c2.71-1.57,5-1.09,5,3a11.24,11.24,0,0,1-5.47,9.81c-1.67,1-2.9,1.06-3.73.79Zm5.46-8.27c-.27-2-1.27-2.31-2.63-1.52A4.2,4.2,0,0,0,263,161.2c0,1.42.81,1.69,2.21.88A7,7,0,0,0,267.73,159.24Z" style="fill:#BA68C8"></path><path d="M274.15,153.9c.92-.53,1.62-.31,1.62.54a3.15,3.15,0,0,1-1.62,2.42c-.92.53-1.65.32-1.65-.53A3.21,3.21,0,0,1,274.15,153.9Zm0,6.49c.92-.53,1.62-.31,1.62.54a3.15,3.15,0,0,1-1.62,2.42c-.92.53-1.65.32-1.65-.53A3.21,3.21,0,0,1,274.15,160.39Z" style="fill:#BA68C8"></path><path d="M278,154.79a9.93,9.93,0,0,1,4.73-8.94c2.89-1.67,4.73-.59,4.73,3.47s-1.84,7.39-4.73,9.06S278,158.87,278,154.79Zm7.05-4.07c0-3.42-1-3.95-2.32-3.16s-2.32,2.42-2.32,5.84,1,4,2.32,3.27S285.08,154.13,285.08,150.72Z" style="fill:#BA68C8"></path><path d="M289.27,148.3a9.93,9.93,0,0,1,4.73-8.94c2.9-1.67,4.74-.59,4.74,3.47s-1.84,7.39-4.74,9.06S289.27,152.38,289.27,148.3Zm7.06-4.07c0-3.42-1-3.95-2.33-3.16s-2.32,2.42-2.32,5.84,1,4,2.32,3.27S296.33,147.64,296.33,144.23Z" style="fill:#BA68C8"></path><path d="M251.47,192.84,308,160.18c1.2-.69,2.17-.13,2.17,1.25v16.7a4.76,4.76,0,0,1-2.17,3.74l-56.56,32.67c-1.2.69-2.17.13-2.17-1.25v-16.7A4.8,4.8,0,0,1,251.47,192.84Z" style="fill:#BA68C8;opacity:0.8"></path><path d="M255.56,194.82l7.28-4.2c1.1-.64,2-.12,2,1.16v8.4a4.42,4.42,0,0,1-2,3.47l-7.28,4.21c-1.11.64-2,.12-2-1.16v-8.4A4.44,4.44,0,0,1,255.56,194.82Z" style="fill:#f0f0f0"></path><path d="M269.81,186.59,290,175c.66-.38,1.2-.1,1.2.63a2.62,2.62,0,0,1-1.2,2l-20.17,11.64c-.67.39-1.21.1-1.21-.63A2.61,2.61,0,0,1,269.81,186.59Z" style="fill:#f0f0f0"></path><path d="M269.81,191.79,305,171.41c.66-.39,1.2-.1,1.2.63a2.61,2.61,0,0,1-1.2,2l-35.22,20.38c-.67.39-1.21.1-1.21-.63A2.59,2.59,0,0,1,269.81,191.79Z" style="fill:#f0f0f0"></path><path d="M269.81,197,305,176.6c.66-.38,1.2-.1,1.2.63a2.62,2.62,0,0,1-1.2,2l-35.22,20.38c-.67.38-1.21.1-1.21-.64A2.61,2.61,0,0,1,269.81,197Z" style="fill:#f0f0f0"></path><path d="M251.47,218.84,308,186.18c1.2-.69,2.17-.13,2.17,1.25v16.7a4.78,4.78,0,0,1-2.17,3.75l-56.56,32.66c-1.2.69-2.17.13-2.17-1.25v-16.7A4.8,4.8,0,0,1,251.47,218.84Z" style="fill:#BA68C8;opacity:0.8"></path><path d="M255.56,220.82l7.28-4.2c1.1-.64,2-.12,2,1.16v8.4a4.46,4.46,0,0,1-2,3.48l-7.28,4.2c-1.11.64-2,.12-2-1.16v-8.4A4.44,4.44,0,0,1,255.56,220.82Z" style="fill:#f0f0f0"></path><path d="M269.81,212.6,290,201c.66-.38,1.2-.1,1.2.64a2.62,2.62,0,0,1-1.2,2l-20.17,11.64c-.67.39-1.21.1-1.21-.63A2.59,2.59,0,0,1,269.81,212.6Z" style="fill:#f0f0f0"></path><path d="M269.81,217.79,305,197.41c.66-.39,1.2-.1,1.2.63a2.59,2.59,0,0,1-1.2,2l-35.22,20.39c-.67.38-1.21.1-1.21-.64A2.59,2.59,0,0,1,269.81,217.79Z" style="fill:#f0f0f0"></path><path d="M269.81,223,305,202.6c.66-.38,1.2-.1,1.2.63a2.62,2.62,0,0,1-1.2,2l-35.22,20.38c-.67.38-1.21.1-1.21-.63A2.61,2.61,0,0,1,269.81,223Z" style="fill:#f0f0f0"></path><path d="M251.47,244.84,308,212.18c1.2-.69,2.17-.13,2.17,1.25v16.7a4.78,4.78,0,0,1-2.17,3.75l-56.56,32.66c-1.2.69-2.17.13-2.17-1.25v-16.7A4.8,4.8,0,0,1,251.47,244.84Z" style="fill:#BA68C8;opacity:0.8"></path><path d="M255.56,246.83l7.28-4.21c1.1-.64,2-.12,2,1.16v8.41a4.46,4.46,0,0,1-2,3.47l-7.28,4.2c-1.11.64-2,.12-2-1.16v-8.4A4.42,4.42,0,0,1,255.56,246.83Z" style="fill:#f0f0f0"></path><path d="M269.81,238.6,290,227c.66-.38,1.2-.1,1.2.64a2.61,2.61,0,0,1-1.2,2l-20.17,11.65c-.67.38-1.21.1-1.21-.64A2.59,2.59,0,0,1,269.81,238.6Z" style="fill:#f0f0f0"></path><path d="M269.81,243.79,305,223.41c.66-.38,1.2-.1,1.2.63a2.62,2.62,0,0,1-1.2,2l-35.22,20.38c-.67.38-1.21.1-1.21-.63A2.61,2.61,0,0,1,269.81,243.79Z" style="fill:#f0f0f0"></path><path d="M269.81,249,305,228.6c.66-.38,1.2-.1,1.2.64a2.61,2.61,0,0,1-1.2,2l-35.22,20.38c-.67.39-1.21.1-1.21-.63A2.59,2.59,0,0,1,269.81,249Z" style="fill:#f0f0f0"></path></g><g id="freepik--character-2--inject-1--inject-200"><ellipse cx="402.38" cy="350.02" rx="43.43" ry="20.7" style="fill:#ebebeb"></ellipse><path d="M384.46,243h18.91a5.07,5.07,0,0,0,5.07-5.08V197.69a14.53,14.53,0,0,0-14.53-14.54h0a14.54,14.54,0,0,0-14.53,14.54v40.22A5.07,5.07,0,0,0,384.46,243Z" style="fill:#263238"></path><path d="M406.14,190.45l3.37-1.8a1.86,1.86,0,0,0-2.55-.85A2,2,0,0,0,406.14,190.45Z" style="fill:#263238"></path><path d="M405.85,190.84l3.58,1.34a1.87,1.87,0,0,0-1-2.48A2,2,0,0,0,405.85,190.84Z" style="fill:#263238"></path><path d="M427.05,326.44c1.15-.59,1.87.87,2.91,2a8.6,8.6,0,0,1,2,3c.25,1.39-1,3.56-2.38,4.76s-3,2.06-3.48,4.69a6.37,6.37,0,0,1-4.25,5.36c-3,1.29-7,.88-8.34,0-1.61-1-.14-2.17,2.11-5.4,2.94-4.2,5.23-7.21,5.23-11.13Z" style="fill:#263238"></path><path d="M424.7,323l2.41,3.53a3.39,3.39,0,0,1-.81,4.71l-.08.05a3.64,3.64,0,0,1-4.62-.71l-3.76-4.11Z" style="fill:#f28f8f"></path><path d="M381.31,255.85c-.15,4.51-.95,21,2.34,29.58a80.85,80.85,0,0,0,6.85,14.07c1,1.68,29.22,29.17,29.22,29.17s4.79-.35,5.55-5c0,0-11.57-19.67-14.07-23.7s-11.38-10.22-11.38-10.22l.8-37.82Z" style="fill:#455a64"></path><rect x="381.54" y="340.53" width="6.12" height="8.92" transform="translate(86.05 -76.68) rotate(12.81)" style="fill:#f28f8f"></rect><path d="M391.26,269.62a38,38,0,0,1-5.45-6.29c-4.57-6.3-3.87-11.9-3.87-11.9h1.87l24.7.5c2.44,4,3,10.1,2.15,16-1.72,12.31-11.91,33.6-11.91,33.6.15,1.68.86,8.75-.75,15-2.53,9.89-9.43,26.62-9.43,26.62s-4.32.62-6.47-1.88c0,0,3.82-34,4.85-42.68C388.07,289.2,391.26,269.62,391.26,269.62Z" style="fill:#455a64"></path><path d="M381.3,345.71l.19-.85c-.63.12-3.31,4.57-6,6.5-2.91,2.12-5.43,3.37-6.73,4.33-1.74,1.27.77,3.89,5.06,4.12,2.12.12,6-.53,7.19-1.66s2-3,3-3.82,2.86-1.53,3.51-2.57a7.48,7.48,0,0,0,.37-3.21c0-1.12-.08-2.35-.46-2.33l-.15.65a7.47,7.47,0,0,1-3.63.8C382.67,347.62,380.8,347.39,381.3,345.71Z" style="fill:#263238"></path><path d="M387.71,292.86s2.88-20.44,3.55-23.24c0,0-5.07-1.94-6.63-3.71a12.15,12.15,0,0,0,4.74,4.68Z" style="fill:#263238"></path><path d="M403,292.26s-3.05,7.6-4.29,9.29c0,0,.31,5.79.27,7l1.6,1.4a36,36,0,0,0-.72-7.82" style="fill:#263238"></path><path d="M382.7,237.56c-.39,3.57-1.39,18.29-1.39,18.29,11.81,6.31,26.47,2.13,28.71-.47a25.11,25.11,0,0,0-6.63-11.29l3.82-10.67s.46-1.1.45-1.11a13.21,13.21,0,0,1-3.13-13.68,2.07,2.07,0,0,0-1.79-2.71l-3.39-.27-9.2-.27c-2.2.12-3.77.33-3.77.33-1.41,1.32-3.63,4.94-5.07,8.63C380.38,226.72,379.38,230.51,382.7,237.56Z" style="fill:#BA68C8"></path><polygon points="404.74 237.27 403.4 232.05 401.73 244.1 405.11 245.98 403.38 244.09 405.13 239.22 404.74 237.27" style="fill:#BA68C8"></polygon><polygon points="404.74 237.27 403.4 232.05 401.73 244.1 405.11 245.98 403.38 244.09 405.13 239.22 404.74 237.27" style="opacity:0.2"></polygon><path d="M384.57,189.48c-1.54.91-3.43,4.77-3.25,12.87.16,6.86,2.39,8.55,3.5,9s3.27.19,5.37-.16v4.12s-2.9,3.36-2.71,5.25,4.17,2.33,6.88.49a21.94,21.94,0,0,0,5-5.44l-.05-9.47s1.23,1.2,3.32-.63c1.73-1.51,2.31-4.05,1-5.41a3,3,0,0,0-4.78,1,16.55,16.55,0,0,1-7.78-2.32A12.5,12.5,0,0,1,384.57,189.48Z" style="fill:#f28f8f"></path><path d="M389,200.62a.88.88,0,0,0,.82.94.89.89,0,0,0,.91-.86.88.88,0,0,0-.82-.93A.89.89,0,0,0,389,200.62Z" style="fill:#263238"></path><g style="opacity:0.5;mix-blend-mode:multiply"><path d="M388.75,206.44l-2,.64a1,1,0,0,0,1.3.72A1.1,1.1,0,0,0,388.75,206.44Z" style="fill:#f28f8f"></path></g><path d="M381.91,198l1.75-1.21a1,1,0,0,0-1.45-.29A1.1,1.1,0,0,0,381.91,198Z" style="fill:#263238"></path><path d="M382.31,200a.87.87,0,1,0,1.73.08.87.87,0,1,0-1.73-.08Z" style="fill:#263238"></path><g style="opacity:0.5;mix-blend-mode:multiply"><polygon points="386.38 199.5 386.25 204.7 383.51 203.85 386.38 199.5" style="fill:#f28f8f"></polygon></g><g style="opacity:0.5;mix-blend-mode:multiply"><path d="M390.19,211.23c2.2-.29,6.74-1.59,7.45-3.39a4.68,4.68,0,0,1-1.59,2.29c-1.36,1.17-5.86,2.47-5.86,2.47Z" style="fill:#f28f8f"></path></g><path d="M417.32,250.53c-.06-.75-1.44-8.66-2.4-13.09l-9.31,2.85,1.49,6.2,7.75,7.49A3.06,3.06,0,0,0,417.32,250.53Z" style="fill:#f28f8f"></path><path d="M402.74,215.92c3.57.32,8.28.85,10.52,11,2.1,9.53,2.62,12.86,2.62,12.86s-2.76,3.49-9.87,3.1l-2.61-10.84C398.64,225.79,400.17,221.3,402.74,215.92Z" style="fill:#BA68C8"></path><path d="M372.64,243.15c-1.28-2.38-1.59-2.48-2.35-3s-5.43-1.21-7.36-1.38c-2.28-.19-3.09.23-2.45,2.19,1.35,4.19,5.46,13.09,6.38,14.32.6.8.73,1.55,3.29,1.8,2.39.23,5.39.36,6.27.41s2.1.28,1.31-2.32a86.45,86.45,0,0,0-3.49-8.63C373.25,244.39,372.64,243.15,372.64,243.15Z" style="fill:#263238"></path><path d="M407.1,246.49s-20.68,2.19-23.36,1.36-6.27-3.51-8.21-4.62-3.32-1.2-3.32-.73,1.65,3,2,4-1.79,1.05-4.62.4-4-2.31-4.71-1.34,1.57,5.67,6.28,7.43,8.2.6,12.09.76,26.17,1.9,31.57.2a4.79,4.79,0,0,0-1.87-4.6A16.58,16.58,0,0,0,407.1,246.49Z" style="fill:#f28f8f"></path></g><g id="freepik--character-1--inject-1--inject-200"><ellipse cx="97.27" cy="350.02" rx="43.43" ry="20.7" style="fill:#ebebeb"></ellipse><path d="M114.4,239.14c-2.26-13.78,0-24.92-.31-28.46l7.14,15.4s.89,8.52,1.48,14.47c.52,5.23,1.31,11.76,2.73,15.94a3.21,3.21,0,0,0,1.46,1.74c1.83,1,2.59,2.14,4,3.49,1.09,1,2,1.29,1.87,1.64a1.71,1.71,0,0,1-2.17.88A12,12,0,0,1,128,263a15.9,15.9,0,0,0,2.77,4.33c2.62,2.95,2.81,4.82-2.22,5.08-3.16.16-5.75-1.68-8.42-8.53a55.77,55.77,0,0,1-2.54-7.71C116.1,249.33,115.08,243.31,114.4,239.14Z" style="fill:#ffa8a7"></path><path d="M64.65,332.55c-1.2-.61-2,.91-3.06,2.14a8.93,8.93,0,0,0-2.13,3.19c-.26,1.45,1,3.73,2.49,5s3.12,2.16,3.65,4.91a6.68,6.68,0,0,0,4.45,5.63c3.13,1.35,7.32.91,8.74,0,1.68-1.09.15-2.28-2.21-5.66-3.08-4.41-5.48-7.55-5.48-11.66Z" style="fill:#263238"></path><path d="M66.52,328.68l-1.94,4a3.57,3.57,0,0,0,.86,4.94l.08.05a3.81,3.81,0,0,0,4.83-.75l3.39-4.59Z" style="fill:#ffa8a7"></path><path d="M88.53,249.37a119.58,119.58,0,0,0-1.29,19.55c0,8.16-1.22,28.63-1.22,28.63a19.71,19.71,0,0,0-7.52,7.16c-3.17,5.14-13.07,25.69-13.07,25.69s2.68,3.75,7.06,3.85c0,0,20.55-25.74,23.83-30.09s10.93-36.29,10.93-36.29Z" style="fill:#37474f"></path><polygon points="112.29 341.83 118.64 341.2 117.64 331.16 110.74 331.84 112.29 341.83" style="fill:#ffa8a7"></polygon><path d="M118.3,337.8l-.1-1c.69.22,3.07,5.6,5.79,8.15,3,2.79,5.63,4.55,7,5.8,1.78,1.68-1.42,4.27-6.27,3.92-2.4-.16-6.66-1.44-7.84-2.88s-1.47-3.43-2.42-4.48-2.8-2-3.38-3.25c-.32-.69-.14-2.62-.16-4,0-1.77.26-2.63.73-2.64,0,.15.12.88.12.88a4.71,4.71,0,0,0,3,1.67C115.83,340.07,118.62,339.75,118.3,337.8Z" style="fill:#263238"></path><path d="M120.08,249.37l-2,83.74s-2.09,2.12-7.34.77c0,0-5.33-22.21-5.63-27.52a39.66,39.66,0,0,1,1.25-11l-2.08-18.83L88.53,249.37Z" style="fill:#37474f"></path><path d="M104.49,278.43c0-.19,3.58-13.28,3.58-13.28s7-1.18,9.38-2.84c0,0-4,3.72-7.81,4.41l-4,12.11.16,11.3Z" style="fill:#263238"></path><path d="M109.64,206.66c4.82.05,9,.77,10.44,6,1.27,4.78,2.41,20.37,2.41,20.37s-1.24,1.68-8,1.24Z" style="fill:#263238"></path><path d="M99.73,207c-5.17.43-11.41,1-14.17,7.07-3.06,6.69-6.39,18.48-6.39,18.48,1.8,2.1,5.46,4.12,8.46,3.21l2.5-5.64-1.6,19.3c4.5,4.9,21.73,7.18,31.55,0,0,0-.73-26.25-.87-31.24-.16-5.73-1.91-11-9.57-11.47Z" style="fill:#455a64"></path><polygon points="90.13 230.07 94.39 223.31 89.62 236.24 90.13 230.07" style="fill:#263238"></polygon><path d="M94.39,189.57,96.51,198a4.05,4.05,0,0,0,3.93,3.06h2.49v-11.7Z" style="fill:#263238"></path><circle cx="111.46" cy="186.49" r="8.99" style="fill:#263238"></circle><path d="M97.57,181.39a3.4,3.4,0,0,0-2.83,1c-1.21,1.24-1,3.54,0,8.82l3.75.44Z" style="fill:#263238"></path><path d="M99.33,191.64c-.55.33-1.35-.74-2-1.46a2.42,2.42,0,0,0-4.05.66c-1.14,2.4.65,5.57,2.36,6.28a2.61,2.61,0,0,0,3.46-1.1L99.73,207a9.81,9.81,0,0,0,7.39,5.61c5.4.74,4.29-3.71,2.52-5.9v-3.34a16.69,16.69,0,0,0,4.1.21c2-.36,2.94-2.19,3.87-4.53a26.28,26.28,0,0,0,1-14.69c-1.59-8.3-10.78-8.48-16-5.16S99.33,191.64,99.33,191.64Z" style="fill:#ffa8a7"></path><path d="M99.33,192.58c-.28,0-1.34-1.77-2-2.4-1-.87.28-8.79.28-8.79.49-6.5,10.07-7,12.71-7.18,6.07-.43,10.19,2.92,8.55,7.15-1.1,1.92-3.34,2.45-5.44,2.71-3.57.43-9.65-1.48-10.41-1.59-1-.14-1.25.86-1.81,3.6C100.68,188.48,100.28,192.56,99.33,192.58Z" style="fill:#263238"></path><path d="M97.58,182l-3.37-1.81a1.86,1.86,0,0,1,2.55-.84A2,2,0,0,1,97.58,182Z" style="fill:#263238"></path><path d="M109.63,203.32s-5-1-6.75-1.93a5.71,5.71,0,0,1-2.41-2.39,8,8,0,0,0,1.37,2.82c1.28,1.63,7.79,2.83,7.79,2.83Z" style="fill:#f28f8f"></path><path d="M109.79,191.46a1,1,0,1,1-2,0,1,1,0,1,1,2,0Z" style="fill:#263238"></path><path d="M108.72,187.67l-2.14,1.19a1.3,1.3,0,0,1,.5-1.71A1.2,1.2,0,0,1,108.72,187.67Z" style="fill:#263238"></path><path d="M109.18,198.15l2.28.86a1.21,1.21,0,0,1-1.55.76A1.28,1.28,0,0,1,109.18,198.15Z" style="fill:#f28f8f"></path><path d="M118.2,188.51l-2-1.51a1.19,1.19,0,0,1,1.7-.26A1.31,1.31,0,0,1,118.2,188.51Z" style="fill:#263238"></path><path d="M117.6,190.88a1,1,0,1,1-1-1A1,1,0,0,1,117.6,190.88Z" style="fill:#263238"></path><polygon points="113.4 191.05 112.45 197.01 115.75 196.62 113.4 191.05" style="fill:#f28f8f"></polygon><path d="M93.22,187.93s11.14,11.68,11.8,12.55-6.2,7.62-7.37,6.83S86.83,196,86,195.07C84.69,193.58,92.15,186.86,93.22,187.93Z" style="fill:#263238"></path><path d="M89,198.31a8.81,8.81,0,0,1,5.39-4.73c3.09-1.09,6.18,2,5.23,4.57-.33.92-2.62,4.71-3.41,6.55-.5,1.18-1.94,1.58-2.7,3.51-2.76,7-3,18.33-5.64,25.75a9.43,9.43,0,0,1-3,4.71,5,5,0,0,1-3.62,1.12c-3.36-.48-3.32-7.54-2.76-11.74.68-5.14,9.13-21.88,9.08-22.91-.13-2.61-.31-3.59-.37-5.7a25,25,0,0,1,.39-2.66Z" style="fill:#ffa8a7"></path></g></svg>